<svg version="1.1" xmlns="http://www.w3.org/2000/svg" style="display: block;" viewBox="0 0 2048 1536" width="1024" height="768" preserveAspectRatio="none">
<defs>
	<linearGradient id="Gradient1" gradientUnits="userSpaceOnUse" x1="1235.35" y1="435.154" x2="1241.6" y2="389.977">
		<stop class="stop0" offset="0" stop-opacity="1" stop-color="rgb(253,212,177)"/>
		<stop class="stop1" offset="1" stop-opacity="1" stop-color="rgb(255,237,205)"/>
	</linearGradient>
	<linearGradient id="Gradient2" gradientUnits="userSpaceOnUse" x1="1121.31" y1="131.394" x2="1095.62" y2="164.788">
		<stop class="stop0" offset="0" stop-opacity="1" stop-color="rgb(123,117,105)"/>
		<stop class="stop1" offset="1" stop-opacity="1" stop-color="rgb(153,141,121)"/>
	</linearGradient>
	<linearGradient id="Gradient3" gradientUnits="userSpaceOnUse" x1="999.625" y1="171.702" x2="915.499" y2="145.893">
		<stop class="stop0" offset="0" stop-opacity="1" stop-color="rgb(102,97,93)"/>
		<stop class="stop1" offset="1" stop-opacity="1" stop-color="rgb(133,128,112)"/>
	</linearGradient>
	<linearGradient id="Gradient4" gradientUnits="userSpaceOnUse" x1="1052.13" y1="330.141" x2="1097.48" y2="364.074">
		<stop class="stop0" offset="0" stop-opacity="1" stop-color="rgb(199,151,133)"/>
		<stop class="stop1" offset="1" stop-opacity="1" stop-color="rgb(215,178,153)"/>
	</linearGradient>
	<linearGradient id="Gradient5" gradientUnits="userSpaceOnUse" x1="1141.26" y1="80.1192" x2="1119.78" y2="109.463">
		<stop class="stop0" offset="0" stop-opacity="1" stop-color="rgb(186,181,167)"/>
		<stop class="stop1" offset="1" stop-opacity="1" stop-color="rgb(229,218,192)"/>
	</linearGradient>
	<linearGradient id="Gradient6" gradientUnits="userSpaceOnUse" x1="675.648" y1="318.383" x2="1391.74" y2="1002.49">
		<stop class="stop0" offset="0" stop-opacity="1" stop-color="rgb(0,0,0)"/>
		<stop class="stop1" offset="1" stop-opacity="1" stop-color="rgb(58,58,58)"/>
	</linearGradient>
</defs>
<path transform="translate(0,0)" fill="rgb(255,255,254)" d="M 0 0 L 2048 0 L 2048 1536 L 1668.66 1536 L 1619.65 1536 L 1508.27 1536 L 1505 1536 L 1482.55 1536 L 1473.87 1536 L 1426.4 1536 L 1402.62 1536 L 1292.78 1536 L 1282.89 1536 L 1280.19 1536 L 1024.09 1536 L 1021.52 1536 L 982.564 1536 L 978.177 1536 L 965.455 1536 L 962.634 1536 L 960.154 1536 L 956.111 1536 L 721.219 1536 L 718.184 1536 L 637.432 1536 L 632.744 1536 L 615.729 1536 L 537.544 1536 L 533.877 1536 L 379.507 1536 L 375.464 1536 L 0 1536 L 0 0 z"/>
<path transform="translate(0,0)" fill="rgb(4,4,4)" d="M 865.141 693.408 C 866.723 693.81 868.667 693.883 869.105 695.064 C 871.183 700.66 866.785 708.975 867.069 714.915 L 869.525 719.261 C 864.284 748.789 856.12 787.089 862.796 816.077 L 859.382 817.145 L 858.902 818.736 C 861.359 826.093 863.416 833.291 865.555 840.732 C 877.168 871.989 890.412 907.457 910.516 934.477 C 913.916 930.268 916.25 927.251 919.239 922.757 C 926.096 920.551 950.216 895.904 956.264 889.653 C 960.701 897.716 973.429 922.654 979.891 926.514 L 978.695 920.852 L 980.159 921.041 C 981.127 922.747 982.351 925.053 983.369 926.659 C 988.835 921.895 1003.29 916.185 1010.01 919.446 C 1013.72 924.882 1008.78 936.795 1006.26 942.171 C 994.367 967.569 993.445 989.533 995.556 1017.24 C 999.364 1007.77 1004.6 995.631 1007.44 986.104 L 1010.56 975.669 C 1014.41 968.812 1014.64 934.808 1014.87 925.744 L 1014.29 921.854 L 1015.47 920.315 C 1019.9 920.286 1024.04 922.917 1028.77 924.241 C 1036.82 933.165 1037.97 965.734 1041.72 972.412 C 1043.5 971.397 1043.2 971.145 1044.39 969.089 C 1044.47 974.217 1047.06 978.154 1046.76 981.386 L 1048.14 983.331 L 1049.05 983.075 C 1049.75 986.27 1050.38 988.659 1050.53 991.954 C 1049.2 994.781 1049.39 993.309 1050.23 996.546 L 1051.33 997.221 C 1058.74 1012.77 1067.82 1119.02 1069.59 1140.04 L 1070.06 1146 C 1071.51 1148.53 1073.39 1155.2 1074.37 1158.33 C 1082.43 1146.41 1103.85 1101.33 1108.58 1097.01 C 1110.7 1092.02 1113.47 1082.8 1115.29 1077.38 C 1119.24 1088.13 1089.87 1166.6 1084.89 1182.75 C 1080.57 1196.75 1071.78 1216.37 1067.01 1230.89 C 1055.97 1256.32 1047.61 1290.4 1035.6 1314.97 L 1032.09 1325.3 L 1031.96 1325.75 C 1017.2 1359.82 1002.71 1399.5 988.471 1434.54 L 972.327 1473.94 C 960.653 1502.05 959.747 1504.8 960.154 1536 L 956.111 1536 L 721.219 1536 L 718.184 1536 L 637.432 1536 L 632.744 1536 L 615.729 1536 L 537.544 1536 L 533.877 1536 L 379.507 1536 L 375.464 1536 C 391.236 1460.43 404.071 1381.71 419.881 1305.88 C 425.207 1280.34 400.317 1250.79 415.522 1215.84 C 417.127 1210.56 430.11 1183.76 433.671 1180.09 C 435.892 1174.26 435.682 1135.47 436.523 1125.36 C 439.318 1091.79 441.847 1042.6 450.65 1011.2 C 454.443 981.503 478.907 899.789 502.006 879.746 C 510.082 874.5 515.523 874.167 524.567 876.164 C 551.678 863.075 600.6 846.082 630.225 835.06 C 674.137 818.915 717.426 801.123 760 781.721 C 770.955 776.741 795.113 766.809 802.811 759.926 C 804.181 757.839 816.667 745.377 818.976 743.432 C 835.496 729.525 849.335 706.915 865.141 693.408 z"/>
<path transform="translate(0,0)" fill="rgb(53,53,52)" d="M 637.432 1536 L 606.327 1330.99 C 598.161 1274.26 589.991 1225.32 589.188 1167.72 C 589.038 1156.96 588.998 1031.12 589.207 1031.58 C 587.221 1034.46 584.893 1088.06 584.443 1096.13 L 583.942 1093.88 C 580.791 1099.39 573.034 1144.77 568.841 1155.98 L 568.106 1155.53 C 568.102 1155.22 563.5 1138.03 563.194 1136.92 C 543.014 1063.4 529.813 987.043 524.888 910.954 C 524.327 902.295 523.714 890.498 526.06 882.049 C 528.882 878.008 537.45 874.508 542.013 872.726 C 626.17 839.857 710.957 810.017 792.706 771.176 C 780.459 788.971 765.077 819.666 755.445 839.27 C 744.738 860.993 734.157 882.778 723.701 904.623 C 728.519 909.835 735.892 914.695 741.873 918.463 C 749.72 926.806 761.267 934.302 771.512 939.572 C 767.705 942.033 763.254 944.951 759.483 947.302 C 712.795 976.417 711.6 967.769 728.196 1020.55 C 752.283 1097.51 783.975 1171.87 822.802 1242.54 C 824.092 1251.32 833.673 1269.3 837.898 1277.55 C 866.672 1333.65 900.237 1387.15 938.221 1437.47 C 944.67 1446.13 960.708 1467.6 967.884 1474.12 C 956.089 1502.47 955.673 1504.93 956.111 1536 L 721.219 1536 L 718.184 1536 L 637.432 1536 z"/>
<path transform="translate(0,0)" fill="rgb(4,4,4)" d="M 718.184 1536 C 713.711 1487.92 708.854 1439.89 703.612 1391.89 C 701.088 1368.81 696.917 1339.28 695.853 1316.67 C 699.526 1319.05 702.095 1353.26 702.701 1359.23 L 708.097 1407.98 C 712.287 1448.08 718.564 1496.44 721.219 1536 L 718.184 1536 z"/>
<path transform="translate(0,0)" fill="rgb(53,53,52)" d="M 502.006 879.746 C 508.808 881.587 516.569 877.087 521.632 880.109 C 522.821 886.945 521.662 898.559 521.511 905.91 C 520.73 943.919 530.374 982.609 532.821 1019.87 C 536.05 1030.18 539.026 1048.84 541.184 1059.94 C 544.565 1077.52 548.461 1095 552.868 1112.36 C 558.982 1137.73 565.886 1162.9 573.572 1187.84 C 577.584 1200.77 585.524 1222.3 588.203 1234.23 C 591.65 1249.58 593.865 1274.18 596.199 1290.5 L 612.559 1403.32 C 616.085 1428.29 621.892 1454.05 620.993 1479.03 C 620.941 1480.46 622.162 1481.32 623.125 1481.99 C 622.15 1498.64 616.889 1518.59 615.729 1536 L 537.544 1536 L 533.877 1536 L 379.507 1536 L 375.464 1536 C 391.236 1460.43 404.071 1381.71 419.881 1305.88 C 425.207 1280.34 400.317 1250.79 415.522 1215.84 C 417.127 1210.56 430.11 1183.76 433.671 1180.09 C 435.892 1174.26 435.682 1135.47 436.523 1125.36 C 439.318 1091.79 441.847 1042.6 450.65 1011.2 C 454.443 981.503 478.907 899.789 502.006 879.746 z"/>
<path transform="translate(0,0)" fill="rgb(31,30,30)" d="M 532.821 1019.87 C 536.05 1030.18 539.026 1048.84 541.184 1059.94 C 544.565 1077.52 548.461 1095 552.868 1112.36 C 558.982 1137.73 565.886 1162.9 573.572 1187.84 C 577.584 1200.77 585.524 1222.3 588.203 1234.23 C 591.65 1249.58 593.865 1274.18 596.199 1290.5 L 612.559 1403.32 C 616.085 1428.29 621.892 1454.05 620.993 1479.03 C 620.941 1480.46 622.162 1481.32 623.125 1481.99 C 622.15 1498.64 616.889 1518.59 615.729 1536 L 537.544 1536 C 526.218 1490.68 515.986 1447.48 508.945 1401.22 C 506.103 1382.54 501.106 1359.04 501.271 1340.42 C 502.646 1347.26 507.83 1361.97 509.969 1369.82 C 520.575 1408.77 535.056 1445.55 550.523 1482.77 C 560.176 1444.91 568.631 1406.76 575.877 1368.37 C 577.617 1359.41 584.711 1326.31 583.399 1319.05 C 566.923 1227.92 534.764 1136.93 532.208 1043.73 C 532.013 1036.61 531.619 1026.75 532.821 1019.87 z"/>
<path transform="translate(0,0)" fill="rgb(4,4,4)" d="M 415.522 1215.84 C 416.59 1224.18 413.261 1232.84 413.974 1238.26 C 416.451 1257.09 420.233 1277.85 423.759 1296.5 C 425.046 1289.61 428.496 1264.11 433.682 1261.77 L 433.488 1262.42 C 429.267 1276.86 426.312 1297.29 422.659 1312.6 C 410.192 1364.86 401.874 1417.82 392.044 1470.5 C 389.024 1486.69 383.637 1521.37 379.507 1536 L 375.464 1536 C 391.236 1460.43 404.071 1381.71 419.881 1305.88 C 425.207 1280.34 400.317 1250.79 415.522 1215.84 z"/>
<path transform="translate(0,0)" fill="rgb(4,4,4)" d="M 450.65 1011.2 L 451.71 1012.5 C 450.666 1020.16 446.103 1033.6 448.284 1040.57 C 449.516 1044.52 445.038 1069.95 444.348 1076.49 C 441.081 1106.84 439.613 1137.35 439.95 1167.87 C 442.467 1162.62 465.765 1116.02 467.518 1114.74 C 466.369 1122.82 439.947 1178.28 433.671 1180.09 C 435.892 1174.26 435.682 1135.47 436.523 1125.36 C 439.318 1091.79 441.847 1042.6 450.65 1011.2 z"/>
<path transform="translate(0,0)" fill="rgb(4,4,4)" d="M 533.877 1536 C 514.04 1458.89 498.084 1371.01 492.856 1291 C 492.901 1291.68 493.331 1288.81 493.286 1288 C 496.73 1306.01 496.779 1321.95 501.271 1340.42 C 501.106 1359.04 506.103 1382.54 508.945 1401.22 C 515.986 1447.48 526.218 1490.68 537.544 1536 L 533.877 1536 z"/>
<path transform="translate(0,0)" fill="rgb(53,53,52)" d="M 972.767 1456.78 C 972.348 1456.3 971.934 1455.81 971.526 1455.31 C 950.049 1428.98 926.454 1395.32 906.897 1367.64 C 834.933 1265.77 775.187 1155.97 737.133 1036.88 C 732.907 1023.66 721.308 992.06 721.87 979.254 C 722.154 972.785 755.201 953.914 763.149 948.886 C 781.86 937.785 797.692 923.561 814.107 909.536 C 822.064 902.738 845.984 876.722 855.07 878.86 C 854.957 878.664 859.203 910.427 859.259 912.464 C 860.184 905.155 858.602 901.981 860.255 891.911 C 863.111 927.436 864.292 956.44 869.302 992.537 C 871.453 1008.05 873.909 1023.53 876.67 1038.95 C 878.006 1046.36 880.856 1059.36 881.637 1066.41 C 879.972 1070.38 883.112 1079.94 883.877 1084.63 C 902.046 1195.84 945.603 1308.73 985.983 1413.19 C 981.575 1424.9 973.301 1445.03 972.767 1456.78 z"/>
<path transform="translate(0,0)" fill="rgb(53,53,52)" d="M 983.369 926.659 C 988.835 921.895 1003.29 916.185 1010.01 919.446 C 1013.72 924.882 1008.78 936.795 1006.26 942.171 C 994.367 967.569 993.445 989.533 995.556 1017.24 C 999.364 1007.77 1004.6 995.631 1007.44 986.104 L 1010.56 975.669 C 1014.41 968.812 1014.64 934.808 1014.87 925.744 L 1014.29 921.854 L 1015.47 920.315 C 1019.9 920.286 1024.04 922.917 1028.77 924.241 C 1036.82 933.165 1037.97 965.734 1041.72 972.412 C 1043.5 971.397 1043.2 971.145 1044.39 969.089 C 1044.47 974.217 1047.06 978.154 1046.76 981.386 L 1048.14 983.331 L 1049.05 983.075 C 1049.75 986.27 1050.38 988.659 1050.53 991.954 C 1049.2 994.781 1049.39 993.309 1050.23 996.546 L 1051.33 997.221 C 1058.74 1012.77 1067.82 1119.02 1069.59 1140.04 L 1067.85 1140.76 C 1064.74 1159.59 1068.43 1180.72 1068.25 1199.89 C 1068.22 1203.07 1068.55 1213.01 1067.89 1215.53 C 1062.92 1234.46 1054.79 1254.65 1047.93 1272.99 C 1037.34 1301.59 1026.53 1330.1 1015.51 1358.53 C 1008.1 1377.27 998.618 1398.99 991.92 1417.6 C 981.414 1393.29 922.94 1241.39 926.801 1226.97 C 927.313 1173.01 932.782 1092.88 945.374 1040.98 C 953.124 1009.04 972.31 958.99 983.369 926.659 z"/>
<path transform="translate(0,0)" fill="rgb(31,30,30)" d="M 1014.87 925.744 L 1014.29 921.854 L 1015.47 920.315 C 1019.9 920.286 1024.04 922.917 1028.77 924.241 C 1036.82 933.165 1037.97 965.734 1041.72 972.412 C 1043.5 971.397 1043.2 971.145 1044.39 969.089 C 1044.47 974.217 1047.06 978.154 1046.76 981.386 L 1048.14 983.331 L 1049.05 983.075 C 1049.75 986.27 1050.38 988.659 1050.53 991.954 C 1049.2 994.781 1049.39 993.309 1050.23 996.546 L 1051.33 997.221 C 1058.74 1012.77 1067.82 1119.02 1069.59 1140.04 L 1067.85 1140.76 C 1064.74 1159.59 1068.43 1180.72 1068.25 1199.89 C 1068.22 1203.07 1068.55 1213.01 1067.89 1215.53 C 1062.92 1234.46 1054.79 1254.65 1047.93 1272.99 C 1037.34 1301.59 1026.53 1330.1 1015.51 1358.53 C 1008.1 1377.27 998.618 1398.99 991.92 1417.6 C 981.414 1393.29 922.94 1241.39 926.801 1226.97 C 931.861 1234.92 944.781 1269.89 950.671 1281.74 C 962.618 1305.77 974.924 1329.18 987.378 1352.94 L 987.879 1352.28 C 999.952 1335.99 1038.51 1265.41 1043.4 1246.28 C 1057.18 1192.34 1060.64 1106.52 1051.7 1051.77 C 1047.76 1027.62 1030.58 937.451 1014.87 925.744 z"/>
<path transform="translate(0,0)" fill="rgb(255,255,254)" d="M 859.952 867.143 C 864.45 858.038 861.74 847.377 865.555 840.732 C 877.168 871.989 890.412 907.457 910.516 934.477 C 913.916 930.268 916.25 927.251 919.239 922.757 C 926.096 920.551 950.216 895.904 956.264 889.653 C 960.701 897.716 973.429 922.654 979.891 926.514 C 973.463 945.363 966.254 964.042 959.885 982.874 L 951.216 1009.06 C 947.382 1021.87 943.389 1034.88 940.414 1047.92 C 929.962 1093.72 928.244 1140.68 924.119 1187.28 C 915.596 1178.92 905.374 1144.36 897.73 1136.01 C 891.419 1113.44 886.431 1089.35 881.637 1066.41 C 880.856 1059.36 878.006 1046.36 876.67 1038.95 C 873.909 1023.53 871.453 1008.05 869.302 992.537 C 864.292 956.44 863.111 927.436 860.255 891.911 C 859.864 884.048 860.008 875.095 859.952 867.143 z"/>
<path transform="translate(0,0)" fill="rgb(194,190,172)" d="M 917.631 960.523 C 928.953 966.231 948.923 979.744 959.885 982.874 L 951.216 1009.06 L 949.517 1006.69 C 947.623 1003.03 941.163 994.8 938.393 991.107 C 930.592 980.706 924.032 971.961 917.631 960.523 z"/>
<path transform="translate(0,0)" fill="rgb(4,4,4)" d="M 949.517 1006.69 C 938.184 997.111 911.529 960.682 906.562 948.097 C 910.199 950.691 914.68 956.816 917.631 960.523 C 924.032 971.961 930.592 980.706 938.393 991.107 C 941.163 994.8 947.623 1003.03 949.517 1006.69 z"/>
<path transform="translate(0,0)" fill="rgb(53,53,52)" d="M 865.141 693.408 C 866.723 693.81 868.667 693.883 869.105 695.064 C 871.183 700.66 866.785 708.975 867.069 714.915 C 854.699 765.888 853.829 823.169 855.744 875.422 C 839.938 879.198 832.777 888.636 821.12 898.972 C 808.047 910.564 794.236 924.037 779.556 933.614 C 765.982 926.232 739.703 912.715 727.826 904.25 C 734.525 888.659 742.544 873.177 749.858 857.837 C 761.57 833.272 773.974 808.848 787.863 785.442 C 791.999 778.481 798.414 769.456 803.562 763.007 C 803.269 761.803 803.019 760.776 802.811 759.926 C 804.181 757.839 816.667 745.377 818.976 743.432 C 835.496 729.525 849.335 706.915 865.141 693.408 z"/>
<path transform="translate(0,0)" fill="rgb(31,30,30)" d="M 822.802 1242.54 C 831.241 1254.95 838.469 1268.74 846.302 1281.6 C 884.572 1344.41 927.616 1404.34 972.468 1462.61 C 971.526 1465.06 968.951 1472.16 967.884 1474.12 C 960.708 1467.6 944.67 1446.13 938.221 1437.47 C 900.237 1387.15 866.672 1333.65 837.898 1277.55 C 833.673 1269.3 824.092 1251.32 822.802 1242.54 z"/>
<path transform="translate(0,0)" fill="rgb(194,190,172)" d="M 1074.37 1158.33 C 1082.43 1146.41 1103.85 1101.33 1108.58 1097.01 C 1106.53 1107.71 1101.38 1121.8 1098.07 1132.48 C 1090.05 1158.4 1080.55 1183.69 1071.16 1209.13 C 1071.79 1187.63 1069.54 1165.86 1070.06 1146 C 1071.51 1148.53 1073.39 1155.2 1074.37 1158.33 z"/>
<path transform="translate(0,0)" fill="rgb(194,190,172)" d="M 897.73 1136.01 C 905.374 1144.36 915.596 1178.92 924.119 1187.28 C 924.478 1196.05 923.132 1218.6 922.461 1227.54 C 913.947 1196.04 904.763 1168.22 897.73 1136.01 z"/>
<path transform="translate(0,0)" fill="rgb(255,255,254)" d="M 623.125 1481.99 C 626.907 1486.55 631.606 1527.39 632.744 1536 L 615.729 1536 C 616.889 1518.59 622.15 1498.64 623.125 1481.99 z"/>
<path transform="translate(0,0)" fill="rgb(31,30,30)" d="M 985.983 1413.19 C 988.699 1418.97 989.919 1422.95 987.016 1429.26 C 985.113 1433.4 975.554 1456.37 973.929 1458 L 972.767 1456.78 C 973.301 1445.03 981.575 1424.9 985.983 1413.19 z"/>
<path transform="translate(0,0)" fill="rgb(194,190,172)" d="M 858.902 818.736 C 861.359 826.093 863.416 833.291 865.555 840.732 C 861.74 847.377 864.45 858.038 859.952 867.143 C 858.37 857.886 858.904 829.306 858.902 818.736 z"/>
<path transform="translate(0,0)" fill="rgb(31,30,30)" d="M 741.873 918.463 C 747.65 920.022 769.979 932.494 775.317 936.073 C 774.586 938.082 773.714 938.074 771.512 939.572 C 761.267 934.302 749.72 926.806 741.873 918.463 z"/>
<path transform="translate(0,0)" fill="url(#Gradient6)" d="M 933.028 48.4572 C 980.626 33.4823 1028.9 36.3869 1077.3 48.3246 C 1102 54.4143 1149.16 66.9978 1159.37 94.2368 C 1161.05 98.7239 1160.81 104.185 1163.5 108.249 C 1185.37 108.965 1195.04 119.576 1209.88 134.621 C 1250.92 176.24 1264.46 233.702 1266.82 290.426 C 1267.23 299.168 1268.85 317.763 1268.45 325.966 C 1267.59 343.284 1261.69 369.261 1257.35 386.69 C 1269.86 399.58 1266.64 417.385 1268.62 433.88 C 1273.53 474.731 1246.98 509.191 1227.49 542.506 C 1219.73 555.769 1209.26 567.467 1192.72 561.796 C 1188.28 593.17 1187.68 614.003 1165.59 638.718 C 1164.74 647.656 1164 657.397 1162.92 666.248 C 1168.88 671.841 1174.84 683.069 1177.47 684.194 C 1177.46 684.482 1177.46 684.77 1177.45 685.058 C 1178.24 699.923 1184.79 717.205 1184.74 732.158 C 1184.61 768.612 1180.46 805.929 1174.21 841.834 C 1172.72 850.392 1172.68 860.2 1169.88 868.105 C 1181.84 857.877 1232.88 877.759 1249.77 879.615 C 1255.47 880.242 1289.15 885.611 1292.68 887.145 L 1294.31 889.173 C 1294.32 888.775 1294.32 888.378 1294.33 887.98 C 1285.1 854.913 1273.13 821.545 1259.88 789.835 C 1257.73 784.677 1249.38 767.37 1249.27 765.154 L 1250.7 764.426 C 1250.76 764.834 1262.42 790.816 1263.83 794.346 C 1271.53 813.478 1278.65 832.833 1285.21 852.385 C 1287.45 859.157 1294.4 884.425 1297.91 888.587 C 1299.07 891.885 1302.03 899.633 1302.77 902.67 C 1303.65 905.338 1305.14 909.443 1303.56 911.906 C 1294.85 925.456 1265.51 935.22 1252.13 943.379 L 1244 938.437 L 1242.06 940.393 C 1235.27 938.158 1232.1 932.839 1225.77 929.869 C 1228.22 935.997 1222.43 963.076 1223.33 967.111 C 1229.72 995.834 1252.7 1007.92 1236.42 1038.78 C 1240.6 1042.7 1241.49 1038.46 1242.12 1042.63 L 1241.63 1043.6 C 1237.49 1051.99 1238.42 1059.23 1235.67 1066.85 C 1230.25 1081.88 1221.71 1102.85 1213.17 1116.36 C 1189.07 1154.47 1160.48 1189.54 1130.82 1223.27 C 1127.16 1234.32 1114.76 1256.35 1111.72 1265.94 C 1101.32 1298.86 1089.31 1327.12 1060.11 1347.86 C 1056.09 1350.72 1045.33 1360.08 1041.57 1360.75 C 1038.79 1355.56 1040.15 1333.94 1040.11 1326.68 L 1039.26 1326.59 C 1035.89 1330.8 1038.93 1349.36 1037.43 1356.7 C 1032.78 1347.77 1034.23 1334.42 1031.96 1325.75 L 1032.09 1325.3 L 1035.6 1314.97 C 1047.61 1290.4 1055.97 1256.32 1067.01 1230.89 C 1071.78 1216.37 1080.57 1196.75 1084.89 1182.75 C 1089.87 1166.6 1119.24 1088.13 1115.29 1077.38 C 1113.47 1082.8 1110.7 1092.02 1108.58 1097.01 C 1103.85 1101.33 1082.43 1146.41 1074.37 1158.33 C 1073.39 1155.2 1071.51 1148.53 1070.06 1146 L 1069.59 1140.04 C 1067.82 1119.02 1058.74 1012.77 1051.33 997.221 L 1050.23 996.546 C 1049.39 993.309 1049.2 994.781 1050.53 991.954 C 1050.38 988.659 1049.75 986.27 1049.05 983.075 L 1048.14 983.331 L 1046.76 981.386 C 1047.06 978.154 1044.47 974.217 1044.39 969.089 C 1043.2 971.145 1043.5 971.397 1041.72 972.412 C 1037.97 965.734 1036.82 933.165 1028.77 924.241 C 1024.04 922.917 1019.9 920.286 1015.47 920.315 L 1014.29 921.854 L 1014.87 925.744 C 1014.64 934.808 1014.41 968.812 1010.56 975.669 L 1007.44 986.104 C 1004.6 995.631 999.364 1007.77 995.556 1017.24 C 993.445 989.533 994.367 967.569 1006.26 942.171 C 1008.78 936.795 1013.72 924.882 1010.01 919.446 C 1003.29 916.185 988.835 921.895 983.369 926.659 C 982.351 925.053 981.127 922.747 980.159 921.041 L 978.695 920.852 L 979.891 926.514 C 973.429 922.654 960.701 897.716 956.264 889.653 C 950.216 895.904 926.096 920.551 919.239 922.757 C 916.25 927.251 913.916 930.268 910.516 934.477 C 890.412 907.457 877.168 871.989 865.555 840.732 C 863.416 833.291 861.359 826.093 858.902 818.736 L 859.382 817.145 L 862.796 816.077 C 856.12 787.089 864.284 748.789 869.525 719.261 L 867.069 714.915 C 866.785 708.975 871.183 700.66 869.105 695.064 C 868.667 693.883 866.723 693.81 865.141 693.408 C 873.785 689.637 874.245 681.006 883.378 672.135 C 883.244 665.301 882.381 658.155 881.696 651.327 C 852.986 623.46 852.151 605.502 844.524 567.68 C 828.268 566.851 823.759 565.767 813.71 552.245 C 781.495 508.901 757.271 467.16 765.633 410.803 C 766.758 403.222 768.617 398.745 775.002 393.897 C 768.759 379.294 756.498 348.207 758.199 333.318 C 760.683 311.57 754.163 303.591 749.883 282.685 C 741.795 243.175 765.594 216.67 783.483 184.02 C 817.789 121.411 862.463 69.1826 933.028 48.4572 z"/>
<path transform="translate(0,0)" fill="rgb(4,4,4)" d="M 934.217 51.351 C 964.765 40.5669 1009.46 40.4361 1041.21 44.8362 C 1047.92 45.7655 1065.02 49.9175 1069.01 50.0972 L 1072.76 50.7558 C 1080.66 53.0144 1111.16 61.111 1117.14 65.2881 C 1128.79 69.1803 1146.64 78.69 1152.71 89.9958 C 1156.97 96.0272 1159.2 103.156 1157.27 110.49 C 1163.08 113.682 1160.81 111.886 1167.08 111.985 C 1186.24 112.286 1209.91 138.414 1219.46 152.932 C 1222.08 164.102 1234.31 190.841 1233.25 200.937 C 1236.29 211.747 1241.25 223.221 1244.58 234.312 C 1250.6 254.332 1253.31 272.164 1262.55 291.077 L 1263.46 291.796 L 1261.3 292.525 C 1261.61 295.014 1262.05 296.786 1261.47 299.232 C 1257.08 286.68 1253.25 276.863 1244.75 266.651 C 1245.03 278.15 1244.38 289.653 1242.8 301.047 C 1245.05 305.362 1245.98 308.317 1247.53 312.905 C 1244.01 306.832 1241.18 301.479 1236.53 296.15 C 1234.21 298.448 1230.22 302.164 1228.3 304.592 C 1221.09 298.677 1217.38 295.406 1209.05 290.991 L 1208.36 291.307 C 1215.17 298.267 1219.24 300.137 1225.65 305.914 C 1222.93 308.279 1219.5 311.095 1217.02 313.615 C 1211.72 308.98 1204.22 301.617 1198.56 298.32 L 1196.98 299.355 L 1195.89 299.309 L 1193.27 302.346 C 1198.82 312.527 1202.68 320.983 1206.19 332.167 L 1205.93 333.173 C 1204.2 339.931 1204.22 350.621 1200.24 353.613 C 1203.75 354.514 1208.63 355.629 1211.95 356.709 C 1213.04 358.274 1213.43 358.941 1214.75 360.363 C 1218.91 362.577 1217.47 361.285 1220.06 365.523 L 1219.71 375.875 C 1217.02 384.274 1210.59 382.015 1203.49 387.911 C 1192.82 466.937 1186.4 472.619 1106.48 471.104 C 1055.99 470.146 1052.62 448.641 1039.18 404.978 C 1037.8 400.005 1036.68 394.392 1035.21 389.228 C 1030.16 386.723 1027.05 385.311 1021.29 384.573 L 1022.63 388.144 C 1011.15 386.493 1004.57 386.625 994.009 392.01 C 989.962 419.405 982.507 454.917 959.344 472.522 C 931.341 482.025 882.776 482.755 854.713 472.791 C 833.636 459.888 830.378 445.716 824.327 422.497 C 822.818 416.706 819.274 397.597 817.026 393.294 L 816.206 393.889 C 817.695 418.941 822.881 453.87 828.09 478.368 C 825.864 475.905 825.842 473.722 823.025 472.665 C 822.293 475.18 822.721 474.958 823.43 477.925 C 826.366 483.236 824.683 485.095 826.376 490.415 C 833.331 512.256 838.521 534.392 842.284 557.052 C 829.859 555.164 827.324 554.38 816.356 548.262 C 782.778 507.633 757.604 457.015 771.823 402.442 C 774.423 392.461 785.561 393.968 792.861 397.658 C 794.247 396.308 794.388 394.736 794.882 392.81 C 796.825 386.568 798.898 378.877 803.039 373.842 L 799.344 373.73 C 795.913 380.94 794.349 384.812 791.893 392.403 C 785.81 391.143 784.244 390.836 778.083 390.941 L 775.002 393.897 C 768.759 379.294 756.498 348.207 758.199 333.318 C 760.683 311.57 754.163 303.591 749.883 282.685 C 741.795 243.175 765.594 216.67 783.483 184.02 C 817.789 121.411 862.463 69.1826 933.028 48.4572 L 934.217 51.351 z"/>
<path transform="translate(0,0)" fill="rgb(254,225,190)" d="M 1080.19 171.578 C 1084.67 169.764 1102.74 161.039 1104.75 160.509 L 1104.18 163.988 C 1108.17 165.18 1118.77 159.243 1127.41 159.394 L 1127.62 160.368 L 1124.93 163.09 C 1125.86 164.924 1125.59 164.742 1128.45 165.508 C 1143.92 169.667 1159.71 176.754 1172.8 186.316 C 1180.54 205.436 1185.87 225.444 1188.66 245.88 C 1191.04 262.546 1187.56 291.775 1193.27 302.346 C 1198.82 312.527 1202.68 320.983 1206.19 332.167 L 1205.93 333.173 C 1204.2 339.931 1204.22 350.621 1200.24 353.613 C 1194.99 352.798 1188.89 351.461 1183.6 350.443 C 1166.51 346.682 1148.98 345.182 1131.56 343.869 C 1124.44 341.825 1116.5 345.255 1113.55 336.94 C 1093.56 338.026 1074.82 340.08 1054.64 335.238 C 1050.71 334.297 1051.62 334.703 1049.79 331.58 C 1046.05 333.655 1041.7 345.191 1040.57 349.452 L 1039.75 351.441 C 1039.96 354.908 1040.1 359.224 1040.56 362.591 C 1038.43 366.509 1039.34 366.39 1036.17 367.607 L 1030.86 366.543 C 1015.43 363.049 1002.49 364.837 987.703 369.387 C 986.024 360.647 982.613 350.159 975.809 344.02 L 976.438 337.35 C 973.644 327.737 972.102 326.352 964.995 319.081 C 946.577 324.745 925.789 327.234 906.635 324.915 C 872.135 320.739 865.773 328.035 843.992 353.746 C 834.465 356.535 823.855 359.114 814.186 361.681 C 820.398 338.812 824.014 328.959 835.013 308.17 C 831.71 287.645 830.08 254.482 834.4 234.225 C 842.219 227.599 853.591 212.745 864.088 203.54 C 875.372 193.645 894.994 182.345 903.044 174.539 C 912.799 172.767 922.602 176.487 930.199 174.917 L 931.205 173.387 C 930.224 170.615 927.757 169.436 925.254 167.736 C 933.253 169.632 938.032 170.919 945.829 173.646 C 951.848 175.751 964.688 181.414 970.177 182.039 L 974.736 182.029 C 978.896 184.152 983.465 186.596 987.66 188.524 C 982.119 182.76 976.701 176.879 971.41 170.885 C 983.402 178.366 1000.89 190.636 1012.72 196.463 C 1015.77 193.682 1019.33 189.654 1023.08 188.881 L 1025.68 190.947 C 1033.82 189.876 1039.6 180.67 1045.66 178.613 C 1044.75 180.61 1043.82 182.598 1042.87 184.576 L 1043.83 185.407 C 1052.89 181.885 1080.12 164.489 1085.41 163.534 C 1083.6 166.689 1082.32 168.627 1080.19 171.578 z"/>
<path transform="translate(0,0)" fill="rgb(4,4,4)" d="M 1061.58 316.642 C 1083.1 319.826 1096.56 319.583 1118.4 316.985 C 1128.87 315.738 1144.06 313.766 1154.06 314.104 C 1162.78 319.12 1184.81 338.263 1185.83 348.127 L 1183.6 350.443 C 1166.51 346.682 1148.98 345.182 1131.56 343.869 C 1124.44 341.825 1116.5 345.255 1113.55 336.94 C 1093.56 338.026 1074.82 340.08 1054.64 335.238 C 1050.71 334.297 1051.62 334.703 1049.79 331.58 C 1053.45 327.048 1058.29 321.32 1061.58 316.642 z"/>
<path transform="translate(0,0)" fill="rgb(254,225,190)" d="M 1113.55 336.94 C 1135.8 333.746 1147.04 330.732 1168.08 340.581 C 1170.55 341.736 1183.71 347.508 1185.83 348.127 L 1183.6 350.443 C 1166.51 346.682 1148.98 345.182 1131.56 343.869 C 1124.44 341.825 1116.5 345.255 1113.55 336.94 z"/>
<path transform="translate(0,0)" fill="rgb(194,190,172)" d="M 1145.21 317.422 C 1159.53 315.631 1171.3 332.224 1179.41 342.353 C 1142.13 324.962 1140.15 329.991 1100.1 334.914 C 1081.66 335.671 1071.67 334.701 1053.72 331.626 L 1062.74 319.977 C 1088.93 324.939 1118.8 319.747 1145.21 317.422 z"/>
<path transform="translate(0,0)" fill="rgb(239,201,161)" d="M 1033.73 363.267 C 1029.1 355.462 1031.32 350.586 1040.57 349.452 L 1039.75 351.441 C 1039.96 354.908 1040.1 359.224 1040.56 362.591 C 1038.43 366.509 1039.34 366.39 1036.17 367.607 L 1030.86 366.543 L 1033.73 363.267 z"/>
<path transform="translate(0,0)" fill="rgb(208,160,137)" d="M 1033.73 363.267 C 1036.41 360.268 1038.48 355.215 1039.75 351.441 C 1039.96 354.908 1040.1 359.224 1040.56 362.591 C 1038.43 366.509 1039.34 366.39 1036.17 367.607 L 1030.86 366.543 L 1033.73 363.267 z"/>
<path transform="translate(0,0)" fill="rgb(4,4,4)" d="M 1080.9 243.417 C 1087.55 242.951 1102.56 243.78 1109.08 245.059 L 1109.62 246.093 C 1105.09 247.564 1084.33 245.417 1076.82 246.274 C 1047.34 249.64 1023.85 259.506 993.788 258.923 C 984.62 257.682 974.521 257.452 965.665 254.981 C 969.52 252.588 994.766 256.476 1003.03 256.039 C 1030.64 254.58 1053.16 245.52 1080.9 243.417 z"/>
<path transform="translate(0,0)" fill="rgb(4,4,4)" d="M 944.483 277.338 C 970.218 276.547 994.722 289.147 1020.56 286.4 C 1025.86 285.836 1031.16 285.188 1036.46 284.52 L 1036.5 285.461 C 1032.41 287.691 1027.91 288.016 1023.24 288.774 C 998.74 290.751 983.151 284.366 959.536 281.082 C 948.742 279.581 940.948 280.707 930.326 281.166 L 930.315 280.577 C 936.126 278.141 938.168 278.057 944.483 277.338 z"/>
<path transform="translate(0,0)" fill="rgb(4,4,4)" d="M 1089.68 271.305 C 1096.26 270.403 1114.95 269.981 1119.83 274.949 C 1118.59 276.261 1113.44 275.153 1111.38 274.75 C 1097.97 272.136 1087 274.206 1073.97 277.183 C 1067.43 278.947 1051.18 283.934 1045.59 283.627 C 1049.31 279.937 1082.03 272.459 1089.68 271.305 z"/>
<path transform="translate(0,0)" fill="rgb(42,31,26)" d="M 1004.63 351.179 C 1010.24 350.837 1023.48 351.248 1028.23 354.291 C 1029.82 355.004 1013.58 353.486 1013.35 353.464 C 1001.86 353.731 1001.68 356.092 992.012 357.212 C 994.122 353.296 1000.62 352.147 1004.63 351.179 z"/>
<path transform="translate(0,0)" fill="rgb(4,4,4)" d="M 1024.01 304.509 C 1025.66 307.473 1023.6 314.574 1025.47 320.486 C 1027.09 325.6 1027.42 326.356 1029.87 331.285 C 1026.18 329.925 1024.67 327.331 1023.28 323.704 C 1020.88 317.478 1021.14 310.537 1024.01 304.509 z"/>
<path transform="translate(0,0)" fill="rgb(31,30,30)" d="M 899.769 281.125 C 901.425 280.97 901.374 281.122 903.061 281.437 C 902.295 282.406 882.439 289.899 878.463 292.095 C 877.523 292.485 877.272 292.397 876.22 292.502 C 878.459 287.75 894.686 282.462 899.769 281.125 z"/>
<path transform="translate(0,0)" fill="rgb(42,31,26)" d="M 1144.74 278.166 C 1154.51 278.739 1166.27 283.89 1171.77 292.25 C 1172.66 292.419 1146.07 278.962 1144.74 278.166 z"/>
<path transform="translate(0,0)" fill="rgb(42,31,26)" d="M 994.398 302.646 C 1001.33 308.472 998.072 319.017 993.271 325.214 C 993.228 323.823 993.105 324.116 993.556 322.881 C 996.36 315.208 995.73 310.598 994.398 302.646 z"/>
<path transform="translate(0,0)" fill="rgb(31,30,30)" d="M 1039.42 371.009 C 1046.42 359.829 1053.93 354.874 1067.14 352.212 C 1118.4 341.889 1165.12 350.137 1214.75 360.363 C 1218.91 362.577 1217.47 361.285 1220.06 365.523 L 1219.71 375.875 C 1217.02 384.274 1210.59 382.015 1203.49 387.911 C 1192.82 466.937 1186.4 472.619 1106.48 471.104 C 1055.99 470.146 1052.62 448.641 1039.18 404.978 C 1037.8 400.005 1036.68 394.392 1035.21 389.228 C 1030.16 386.723 1027.05 385.311 1021.29 384.573 C 1010.89 382.137 999.655 385.004 990.266 389.503 C 989.578 413.875 974.577 467.99 945.85 472.07 C 920.579 475.659 872.386 479.952 849.969 465.61 C 832.086 454.168 825.547 411.703 821.724 392.058 C 820.398 384.993 813.686 388.728 808.27 385.383 C 806.771 382.28 807.007 381.78 807.198 378.192 C 806.996 374.76 806.339 371.426 807.82 368.508 C 816.908 362.908 834.145 360.315 844.827 357.576 C 867.937 351.65 893.97 351.91 917.782 352.146 C 934.614 351.551 966.307 352.48 979.681 363.652 C 981.584 365.241 985.228 370.399 986.832 372.66 C 1005.95 366.644 1019.74 366.047 1039.42 371.009 z"/>
<path transform="translate(0,0)" fill="rgb(91,84,79)" d="M 807.198 378.192 C 806.996 374.76 806.339 371.426 807.82 368.508 C 816.908 362.908 834.145 360.315 844.827 357.576 C 867.937 351.65 893.97 351.91 917.782 352.146 C 920.316 352.42 932.098 353.121 932.989 354.039 C 930.255 355.794 918.827 354.696 914.459 354.68 C 896.594 354.614 878.265 354.732 860.677 358.297 C 855.73 359.299 849.043 363.132 844.182 365.43 L 843.289 365.174 C 846.875 361.101 853.427 359.473 858.653 357.834 C 849.888 356.652 818.235 364.92 810.568 368.865 C 808.265 372.144 808.088 374.298 807.198 378.192 z"/>
<path transform="translate(0,0)" fill="rgb(254,225,190)" d="M 1102.06 356.542 C 1121.34 355.755 1169.61 354.772 1184.9 368.617 C 1191.96 375.01 1191.51 386.818 1191.45 395.682 C 1191.44 396.7 1191.42 397.719 1191.41 398.737 C 1192.94 396.277 1192.59 394.223 1192.6 391.436 C 1197.23 401.041 1190.36 445.083 1180.48 450.996 L 1178.22 449.903 C 1166.17 460.044 1150.48 463.021 1135.05 463.79 C 1118.34 464.623 1085.31 465.405 1072.12 454.939 C 1053.42 440.103 1039.75 389.263 1054.51 368.664 C 1060.23 363.81 1078.54 357.622 1085.62 359.496 L 1086.25 361.552 C 1090.49 362.883 1094.32 358.271 1099.27 360.165 L 1101.35 360.982 C 1109.24 360.719 1119.59 364.474 1127.4 366.903 C 1117.66 360.793 1113.27 359.39 1102.06 356.542 z"/>
<path transform="translate(0,0)" fill="rgb(4,4,4)" d="M 1090.9 370.171 C 1117.53 370.337 1149.31 375.734 1164.02 400.277 L 1153.93 404.341 L 1153.21 404.226 C 1149.8 410.753 1140.83 415.171 1134.2 417.868 C 1130.89 416.907 1102.23 416.097 1098.48 416.75 L 1097.37 417.636 C 1086.48 416.395 1076.65 408.288 1076.98 396.673 C 1073.9 387.875 1086.04 381.84 1086.91 374.677 L 1085.09 373.514 C 1085.77 371.871 1088.8 371.087 1090.9 370.171 z"/>
<path transform="translate(0,0)" fill="rgb(255,255,254)" d="M 1076.98 396.673 C 1080.01 392.068 1091.38 377.666 1097.18 377.517 C 1100.84 392.292 1085.56 404.267 1118.09 410.503 C 1130.81 406.696 1132.94 403.036 1136.77 391.209 C 1143.49 393.418 1153.76 395.689 1153.21 404.226 C 1149.8 410.753 1140.83 415.171 1134.2 417.868 C 1130.89 416.907 1102.23 416.097 1098.48 416.75 L 1097.37 417.636 C 1086.48 416.395 1076.65 408.288 1076.98 396.673 z"/>
<path transform="translate(0,0)" fill="rgb(194,190,172)" d="M 1136.77 391.209 L 1136.45 386.334 L 1137.72 385.167 C 1146.32 385.875 1154.63 395.241 1153.93 404.341 L 1153.21 404.226 C 1153.76 395.689 1143.49 393.418 1136.77 391.209 z"/>
<path transform="translate(0,0)" fill="rgb(4,4,4)" d="M 1102.15 382.99 C 1102.64 379.494 1102.85 379.241 1105.5 377.323 C 1110.21 376.442 1114.5 377.868 1119.28 378.912 C 1130.24 382.698 1132.9 383.997 1131.45 396.808 C 1129.74 400.049 1127.45 402.833 1124.14 404.526 C 1119.93 406.653 1115.06 407.038 1110.57 405.596 C 1100.42 402.297 1098.72 393.287 1101.78 384.101 L 1102.15 382.99 z"/>
<path transform="translate(0,0)" fill="rgb(123,117,106)" d="M 1131.45 396.808 C 1129.74 400.049 1127.45 402.833 1124.14 404.526 C 1119.93 406.653 1115.06 407.038 1110.57 405.596 C 1100.42 402.297 1098.72 393.287 1101.78 384.101 C 1102.01 388.032 1101.4 386.766 1103.62 389.563 C 1105.46 390.135 1107.23 390.779 1109.14 391.018 C 1110.6 394.369 1110.78 395.857 1113.77 397.504 C 1119.25 397.759 1120.42 395.353 1123.78 391.27 L 1129.24 390.423 C 1131.48 392.557 1130.82 392.917 1131.45 396.808 z"/>
<path transform="translate(0,0)" fill="rgb(91,84,79)" d="M 1119.28 378.912 C 1130.24 382.698 1132.9 383.997 1131.45 396.808 C 1130.82 392.917 1131.48 392.557 1129.24 390.423 L 1123.78 391.27 C 1122.1 386.51 1121.85 385.395 1118.22 381.582 L 1119.28 378.912 z"/>
<path transform="translate(0,0)" fill="rgb(255,255,254)" d="M 1102.15 382.99 C 1104.84 382.622 1107.52 382.155 1110.23 382.223 C 1113.22 386.371 1111.98 386.763 1109.14 391.018 C 1107.23 390.779 1105.46 390.135 1103.62 389.563 C 1101.4 386.766 1102.01 388.032 1101.78 384.101 L 1102.15 382.99 z"/>
<path transform="translate(0,0)" fill="rgb(91,84,79)" d="M 1102.15 382.99 C 1102.64 379.494 1102.85 379.241 1105.5 377.323 C 1110.21 376.442 1114.5 377.868 1119.28 378.912 L 1118.22 381.582 C 1115.19 381.073 1110.96 380.036 1108.13 380.706 C 1108.95 381.388 1109.29 381.83 1110.23 382.223 C 1107.52 382.155 1104.84 382.622 1102.15 382.99 z"/>
<path transform="translate(0,0)" fill="rgb(208,160,137)" d="M 1054.51 368.664 C 1060.23 363.81 1078.54 357.622 1085.62 359.496 L 1086.25 361.552 C 1081.28 363.862 1077.75 364.833 1077.27 370.967 L 1076.49 374.602 C 1071.15 378.104 1066 381.207 1060.51 384.474 C 1057.31 378.061 1056.51 375.611 1054.51 368.664 z"/>
<path transform="translate(0,0)" fill="rgb(208,160,137)" d="M 1086.25 361.552 C 1090.49 362.883 1094.32 358.271 1099.27 360.165 L 1101.35 360.982 C 1098.31 367.136 1094.78 365.053 1090.9 370.171 C 1088.8 371.087 1085.77 371.871 1085.09 373.514 L 1076.49 374.602 L 1077.27 370.967 C 1077.75 364.833 1081.28 363.862 1086.25 361.552 z"/>
<path transform="translate(0,0)" fill="rgb(4,4,4)" d="M 1086.25 361.552 C 1090.49 362.883 1094.32 358.271 1099.27 360.165 L 1098.57 360.496 C 1089.05 364.911 1085.43 363.639 1077.27 370.967 C 1077.75 364.833 1081.28 363.862 1086.25 361.552 z"/>
<path transform="translate(0,0)" fill="rgb(4,4,4)" d="M 1191.41 398.737 C 1192.94 396.277 1192.59 394.223 1192.6 391.436 C 1197.23 401.041 1190.36 445.083 1180.48 450.996 L 1178.22 449.903 C 1188.76 434.949 1190.36 416.485 1191.41 398.737 z"/>
<path transform="translate(0,0)" fill="rgb(31,30,30)" d="M 1098.48 416.75 C 1102.23 416.097 1130.89 416.907 1134.2 417.868 C 1127 421.285 1104.95 420.655 1098.48 416.75 z"/>
<path transform="translate(0,0)" fill="rgb(4,4,4)" d="M 1072.63 421.84 C 1075.24 422.197 1103.24 443.915 1105.21 446.794 C 1097.63 445.117 1077.14 428.938 1072.63 421.84 z"/>
<path transform="translate(0,0)" fill="rgb(4,4,4)" d="M 1154.01 437.177 C 1153.72 442.65 1134.14 446.763 1129.62 447.738 L 1129.48 447.082 C 1130.49 445.353 1149.76 438.953 1154.01 437.177 z"/>
<path transform="translate(0,0)" fill="rgb(42,31,26)" d="M 1170.21 403.472 C 1175.17 403.164 1182.17 402.447 1186.88 403.254 L 1187.32 404.717 C 1182.55 405.635 1176.01 406.61 1171.29 405.5 L 1170.21 403.472 z"/>
<path transform="translate(0,0)" fill="rgb(4,4,4)" d="M 1161.69 424.102 C 1166.7 426.313 1173.53 429.971 1175.33 435.346 C 1171.29 432.961 1162.53 428.642 1161.69 424.102 z"/>
<path transform="translate(0,0)" fill="rgb(42,31,26)" d="M 1167.62 412.21 C 1173.17 412.569 1179.78 412.109 1183.33 416.672 C 1177.23 416.032 1172.9 415.302 1167.62 412.21 z"/>
<path transform="translate(0,0)" fill="rgb(254,225,190)" d="M 890.228 360.029 C 894.328 359.974 899.228 359.76 903.252 360.081 C 924.431 359.76 951.899 360.101 970.567 370.34 C 972.534 374.223 975.042 378.865 976.666 382.799 C 982.643 404.852 974.789 435.561 961.236 453.853 C 954.095 463.491 939.636 465.623 928.013 466.497 C 904.882 468.238 874.083 471.713 854.507 456.855 C 839.386 443.72 837.708 420.569 835.17 402.447 C 829.909 364.878 860.105 360.947 890.228 360.029 z"/>
<path transform="translate(0,0)" fill="rgb(208,160,137)" d="M 903.252 360.081 C 924.431 359.76 951.899 360.101 970.567 370.34 C 972.534 374.223 975.042 378.865 976.666 382.799 C 972.681 386.254 972.557 386.734 968.168 387.135 C 957.649 380.897 947.888 375.18 936.266 371.24 C 932.751 370.049 929.338 368.773 926.522 366.31 C 921.794 367.384 912.811 370.212 908.771 370.065 C 910.365 367.645 911.046 367.94 914.114 366.423 C 911.368 364.755 906.563 365.148 902.333 364.381 C 903.846 363.247 908.798 362.012 911.007 362.455 L 910.091 363.254 L 909.288 363.162 L 910.993 362.604 L 911.119 362.041 L 910.027 360.67 L 908.125 361.922 C 906.435 361.409 904.852 360.838 903.252 360.081 z"/>
<path transform="translate(0,0)" fill="rgb(4,4,4)" d="M 914.114 366.423 C 924.456 364.23 937.102 361.165 946.332 367.071 L 947.484 369.11 C 939.29 368.216 936.195 364.734 926.522 366.31 C 921.794 367.384 912.811 370.212 908.771 370.065 C 910.365 367.645 911.046 367.94 914.114 366.423 z"/>
<path transform="translate(0,0)" fill="rgb(192,138,122)" d="M 890.228 360.029 C 894.328 359.974 899.228 359.76 903.252 360.081 C 904.852 360.838 906.435 361.409 908.125 361.922 L 910.027 360.67 L 911.119 362.041 L 910.993 362.604 L 909.288 363.162 L 910.091 363.254 L 911.007 362.455 C 908.798 362.012 903.846 363.247 902.333 364.381 C 886.45 366.474 878.757 371.212 864.452 378.187 C 873.019 370.639 880.559 365.865 890.228 360.029 z"/>
<path transform="translate(0,0)" fill="rgb(4,4,4)" d="M 867.096 404.108 C 878.737 385.205 912.927 373.284 934.552 374.692 C 940.242 375.062 943.467 381.775 946.357 386.046 C 949.592 390.828 953.78 393.839 951.918 399.734 C 949.445 407.016 948.628 412.171 942.379 416.584 L 939.859 416.845 C 933.814 422.322 910.375 427.219 903.897 422.239 C 901.848 423.546 899.853 423.169 897.418 422.832 C 888.401 421.657 880.23 416.917 874.735 409.671 C 872.206 408.01 869.546 405.932 867.096 404.108 z"/>
<path transform="translate(0,0)" fill="rgb(255,255,254)" d="M 894.55 388.926 C 894.417 398.016 895.736 405.98 903.849 411.657 C 908.025 414.554 913.225 415.566 918.183 414.445 C 923.867 413.163 928.791 409.636 931.835 404.667 C 937.397 395.668 934.475 390.744 932.64 381.838 C 938.038 382.389 947.955 395.203 951.918 399.734 C 949.445 407.016 948.628 412.171 942.379 416.584 L 939.859 416.845 C 933.814 422.322 910.375 427.219 903.897 422.239 C 901.848 423.546 899.853 423.169 897.418 422.832 C 888.401 421.657 880.23 416.917 874.735 409.671 C 875.027 408.34 875.354 407.017 875.716 405.703 C 878.217 396.771 886.822 393.193 894.55 388.926 z"/>
<path transform="translate(0,0)" fill="rgb(4,4,4)" d="M 903.897 422.239 C 917.731 420.151 925.043 419.695 939.859 416.845 C 933.814 422.322 910.375 427.219 903.897 422.239 z"/>
<path transform="translate(0,0)" fill="rgb(123,117,106)" d="M 924.838 380.247 C 928.046 385.404 928.81 387.211 931.021 392.91 C 931.6 416.06 900.854 419.804 898.848 393.621 C 900.125 390.006 900.785 389.601 903.724 387.064 C 910.21 383.462 917.569 381.544 924.838 380.247 z"/>
<path transform="translate(0,0)" fill="rgb(91,84,79)" d="M 924.838 380.247 C 928.046 385.404 928.81 387.211 931.021 392.91 C 927.016 394.186 924.848 393.914 923.48 398.084 C 923.182 392.769 923.213 390.462 918.668 387.446 C 915.202 386.928 914.794 386.973 911.563 388.328 C 909.335 388.107 906.028 387.446 903.724 387.064 C 910.21 383.462 917.569 381.544 924.838 380.247 z"/>
<path transform="translate(0,0)" fill="rgb(4,4,4)" d="M 911.563 388.328 C 914.794 386.973 915.202 386.928 918.668 387.446 C 923.213 390.462 923.182 392.769 923.48 398.084 C 918.833 404.791 913.635 403.56 909.542 397.278 C 910.315 394.486 910.939 391.196 911.563 388.328 z"/>
<path transform="translate(0,0)" fill="rgb(255,255,254)" d="M 903.724 387.064 C 906.028 387.446 909.335 388.107 911.563 388.328 C 910.939 391.196 910.315 394.486 909.542 397.278 C 905.594 396.683 902.536 395.158 898.848 393.621 C 900.125 390.006 900.785 389.601 903.724 387.064 z"/>
<path transform="translate(0,0)" fill="rgb(255,255,254)" d="M 867.511 440.762 C 871.767 447.769 862.788 454.265 857.684 457.767 C 852.782 450.458 861.837 444.22 867.511 440.762 z"/>
<path transform="translate(0,0)" fill="rgb(4,4,4)" d="M 955.396 421.796 L 956.331 422.761 C 954.022 428.515 934.522 445.345 929.038 449.689 C 928.298 449.12 928.676 449.554 928.478 448.055 C 937.648 439.437 946.301 430.167 955.396 421.796 z"/>
<path transform="translate(0,0)" fill="rgb(4,4,4)" d="M 874.712 440.036 C 876.277 440.481 882.527 443.497 885.855 444.607 C 892.344 446.77 899.141 446.419 903.78 449.539 C 894.641 450.248 879.349 449.01 874.712 440.036 z"/>
<path transform="translate(0,0)" fill="rgb(4,4,4)" d="M 866.548 431.046 C 866.635 431.558 866.356 432.644 866.247 433.237 C 860.783 438.074 854.061 442.164 847.911 446.176 L 847.846 444.707 C 852.37 439.156 860.38 434.591 866.548 431.046 z"/>
<path transform="translate(0,0)" fill="rgb(4,4,4)" d="M 857.595 419.294 L 861.33 419.01 L 862.136 419.842 C 857.461 422.028 853.311 422.507 848.244 423.411 C 846.578 423.563 845.906 423.479 844.234 423.403 L 844.041 422.433 C 848.444 420.451 852.825 420.036 857.595 419.294 z"/>
<path transform="translate(0,0)" fill="rgb(31,30,30)" d="M 842.615 409.458 C 848.451 409.389 852.676 409.356 858.462 409.903 L 859.497 411.504 C 855.236 412.103 847.465 412.546 843.413 411.459 L 842.615 409.458 z"/>
<path transform="translate(0,0)" fill="rgb(255,255,254)" d="M 825.397 372.464 C 826.884 372.443 826.18 372.411 827.792 373.597 L 827.681 375.81 C 824.519 377.781 820.164 377.545 816.245 377.781 C 813.974 377.631 814.859 377.81 812.758 376.554 L 813.543 374.723 C 818.096 372.366 820.277 372.631 825.397 372.464 z"/>
<path transform="translate(0,0)" fill="rgb(255,255,254)" d="M 1197.99 369.263 C 1202.85 368.979 1209.82 368.09 1214.06 369.983 L 1215.06 372.674 C 1208.94 373.326 1200.32 375.874 1197.99 369.263 z"/>
<path transform="translate(0,0)" fill="rgb(194,190,172)" d="M 789.048 181.988 C 816.353 130.536 863.948 74.6409 921.621 56.2874 C 936.873 51.4337 966.337 61.6682 980.037 69.0896 C 1003.15 81.5331 1020.18 102.864 1027.2 128.153 C 1030.53 139.806 1031.38 149.35 1031.27 161.331 C 1020.27 164.946 1008.67 166.37 997.122 165.522 C 978.99 138.748 963.234 124.316 932.298 114.604 C 920.89 110.484 909.456 110.137 897.556 110.157 C 894.152 110.68 889.555 111.064 886.638 112.594 C 900.92 113.452 910.112 110.55 926.051 115.214 C 920.147 121.41 914.177 127.502 912.027 136.109 C 841.625 147.715 798.801 230.163 782.664 293.404 C 780.075 303.548 779.511 314.016 777.41 324.097 C 774.305 306.836 770.82 284.534 774.381 267.318 L 775.594 261.333 C 766.07 278.947 762.847 284.81 759.237 304.873 C 749.804 269.19 747.837 251.467 767.794 217.493 C 785.932 186.616 810.037 158.366 839.078 137.093 C 844.512 133.112 866.163 120.523 867.227 119.464 C 836.371 128.744 809.06 158.053 789.048 181.988 z"/>
<path transform="translate(0,0)" fill="rgb(255,255,254)" d="M 897.556 110.157 L 889.44 109.794 C 907.318 88.3063 936.24 89.8902 960.49 97.898 C 945.374 97.9006 936.202 96.7093 932.298 114.604 C 920.89 110.484 909.456 110.137 897.556 110.157 z"/>
<path transform="translate(0,0)" fill="rgb(255,255,254)" d="M 955.655 68.2615 C 959.029 67.786 961.129 67.8071 964.003 69.3076 C 968.655 75.4986 961.515 76.9466 970.835 86.6923 C 959.133 85.1283 947.355 84.2066 935.552 83.9311 C 927.802 83.8816 919.32 84.3178 911.518 84.5607 C 926.132 75.5578 939.029 71.5272 955.655 68.2615 z"/>
<path transform="translate(0,0)" fill="rgb(194,190,172)" d="M 934.217 51.351 C 964.765 40.5669 1009.46 40.4361 1041.21 44.8362 C 1047.92 45.7655 1065.02 49.9175 1069.01 50.0972 C 1071.2 52.9792 1074.89 57.5633 1076.76 60.4428 C 1084.59 72.0152 1087.2 79.4034 1089.58 93.2676 C 1091.36 106.91 1082.38 134.615 1073.77 145.189 C 1059.82 149.011 1048.64 154.317 1035.48 160.224 C 1035.2 157.438 1034.84 152.313 1034.24 149.771 C 1032.23 132.795 1028.47 117.639 1019.48 102.688 C 1006.07 80.3822 984.233 64.8185 959.655 56.8636 C 951.705 54.2906 943.203 53.7051 935.089 51.5859 L 934.217 51.351 z"/>
<path transform="translate(0,0)" fill="rgb(255,255,254)" d="M 1076.76 60.4428 C 1084.59 72.0152 1087.2 79.4034 1089.58 93.2676 C 1088.33 94.1304 1088.29 94.2304 1086.79 94.1647 C 1052.7 92.6693 1049.24 108.002 1018.18 87.1099 C 1042.86 93.8699 1066.44 94.7295 1064.13 61.0442 C 1068.89 61.1089 1072.05 60.8566 1076.76 60.4428 z"/>
<path transform="translate(0,0)" fill="rgb(194,190,172)" d="M 1155.31 118.197 C 1155.62 115.368 1155.56 112.673 1157.27 110.49 C 1163.08 113.682 1160.81 111.886 1167.08 111.985 C 1186.24 112.286 1209.91 138.414 1219.46 152.932 C 1222.08 164.102 1234.31 190.841 1233.25 200.937 C 1231.01 196.867 1229.8 194.606 1226.98 190.882 C 1228 196.421 1232.98 206.64 1234.93 214.498 C 1233.88 219.078 1231.35 231.006 1229.68 234.846 C 1217.81 219.785 1210.74 210.78 1197.18 197.535 C 1192.56 186.049 1173.24 172.426 1171.99 167.5 C 1181.64 170.86 1192.25 177.13 1199.99 183.817 C 1204.16 187.414 1206.47 190.839 1211.37 194.008 C 1210.84 186.181 1183.41 170.703 1177.35 162.9 C 1169.42 155.483 1144.43 150.893 1133.16 150.211 L 1131.77 148.956 C 1134.38 142.765 1149.55 140.438 1155.31 118.197 z"/>
<path transform="translate(0,0)" fill="rgb(31,30,30)" d="M 1153.29 133.474 C 1173.62 129.9 1210.89 145.215 1214.01 167.114 C 1212.08 165.352 1209.23 160.601 1207.26 158.176 C 1198.88 147.59 1189.17 140.642 1175.98 137.286 C 1168.99 135.508 1159.72 136.21 1153.29 133.474 z"/>
<path transform="translate(0,0)" fill="rgb(254,225,190)" d="M 816.356 548.262 C 782.778 507.633 757.604 457.015 771.823 402.442 C 774.423 392.461 785.561 393.968 792.861 397.658 L 802.053 405.377 C 803.448 416.205 804.706 428.212 807.239 438.729 C 802.454 431.623 792.991 413.261 783.376 417.055 C 778.758 421.856 776.512 433.467 777.337 439.821 L 778.127 439.697 L 779.121 438.057 L 781.129 437.81 C 787.179 449.101 786.882 451.129 797.307 458.53 L 797.029 459.439 C 784.969 484.923 817.301 509.545 832.278 525.877 L 833.21 525.982 C 833.802 522.517 828.447 516.551 826.286 513.356 C 811.141 490.959 800.633 488.279 813.56 460.412 C 816.703 467.126 818.755 472.051 823.43 477.925 C 826.366 483.236 824.683 485.095 826.376 490.415 C 833.331 512.256 838.521 534.392 842.284 557.052 C 829.859 555.164 827.324 554.38 816.356 548.262 z"/>
<path transform="translate(0,0)" fill="rgb(194,190,172)" d="M 828.621 277.566 C 829.459 287.984 830.418 298.391 831.498 308.786 C 820.195 328.539 816.51 340.649 810.436 362.575 C 805.154 364.324 804.02 364.306 801.496 369.206 C 801.224 369.743 800.962 370.285 800.71 370.832 C 795.012 363.013 793.279 354.624 790.759 345.385 C 793.987 341.246 817.488 316.481 817.657 315.435 C 814.671 316.408 807.923 322.01 805.035 324.236 C 795.005 326.296 774.527 346.333 764.304 352.382 C 758.342 331.834 764.221 312.064 770.461 292.378 C 771.058 301.924 772.423 311.535 774.461 321.056 C 774.72 322.269 771.327 326.572 772.875 328.234 C 778.22 323.252 781.305 317.733 785.955 312.485 C 797.65 299.286 812.792 285.202 828.621 277.566 z"/>
<path transform="translate(0,0)" fill="rgb(255,255,254)" d="M 1188.34 224.295 C 1206.94 231.032 1235.59 248.445 1244.75 266.651 C 1245.03 278.15 1244.38 289.653 1242.8 301.047 C 1232.09 284.703 1212.07 266.838 1193.34 260.461 C 1192.73 248.972 1190.38 235.576 1188.34 224.295 z"/>
<path transform="translate(0,0)" fill="rgb(194,190,172)" d="M 1092.84 94.527 C 1102.81 92.0733 1112.44 92.1018 1122.23 95.3149 C 1121.79 110.932 1116.42 126.009 1106.9 138.397 C 1097.24 139.921 1087.96 141.881 1078.39 143.857 C 1086.12 127.639 1093.17 112.915 1092.84 94.527 z"/>
<path transform="translate(0,0)" fill="rgb(194,190,172)" d="M 926.051 115.214 C 958.388 125.811 984.209 144.174 999.357 175.672 L 997.869 175.139 C 996.016 173.676 994.721 173.252 992.588 172.331 C 966.19 149.851 948.72 135.134 912.027 136.109 C 914.177 127.502 920.147 121.41 926.051 115.214 z"/>
<path transform="translate(0,0)" fill="rgb(123,117,106)" d="M 907.977 140.253 C 937.458 151.76 944.785 155.255 968.441 176.417 L 970.591 175.975 C 972.993 178.198 973.208 179.039 974.736 182.029 L 970.177 182.039 C 965.981 174.26 935.037 166.502 925.836 164.262 C 905.236 159.247 887.583 155.946 866.353 159.1 C 879.665 149.202 892.086 144.061 907.977 140.253 z"/>
<path transform="translate(0,0)" fill="rgb(255,255,254)" d="M 1193.27 263.394 C 1213.08 270.774 1222.79 280.636 1236.53 296.15 C 1234.21 298.448 1230.22 302.164 1228.3 304.592 C 1221.09 298.677 1217.38 295.406 1209.05 290.991 L 1208.36 291.307 C 1215.17 298.267 1219.24 300.137 1225.65 305.914 C 1222.93 308.279 1219.5 311.095 1217.02 313.615 C 1211.72 308.98 1204.22 301.617 1198.56 298.32 L 1194.71 295.566 C 1191.56 289.847 1193.13 270.969 1193.27 263.394 z"/>
<path transform="translate(0,0)" fill="rgb(208,160,137)" d="M 843.241 198.306 C 861.122 184.85 881.607 178.858 903.044 174.539 C 894.994 182.345 875.372 193.645 864.088 203.54 C 853.591 212.745 842.219 227.599 834.4 234.225 C 835.494 226.163 840.889 206.717 843.241 198.306 z"/>
<path transform="translate(0,0)" fill="url(#Gradient5)" d="M 1117.14 65.2881 C 1128.79 69.1803 1146.64 78.69 1152.71 89.9958 L 1152.7 94.6418 C 1151.86 104.738 1149.72 120.53 1140.06 126.341 L 1138.52 125.989 C 1141.2 120.07 1146.32 104.353 1142.49 98.8358 L 1141.84 101.457 L 1140.81 102.068 C 1135.46 100.402 1130.73 98.6062 1125.13 98.4382 C 1124.78 90.9602 1123.8 86.5722 1122.3 79.3333 C 1120.76 74.0812 1120.5 72.5458 1117.42 67.9632 L 1117.14 65.2881 z"/>
<path transform="translate(0,0)" fill="rgb(255,255,254)" d="M 1122.3 79.3333 C 1128.8 80.8411 1134.04 81.8822 1140.25 84.5286 C 1140.89 91.3877 1141.04 95.191 1140.81 102.068 C 1135.46 100.402 1130.73 98.6062 1125.13 98.4382 C 1124.78 90.9602 1123.8 86.5722 1122.3 79.3333 z"/>
<path transform="translate(0,0)" fill="url(#Gradient4)" d="M 1040.57 349.452 C 1041.7 345.191 1046.05 333.655 1049.79 331.58 C 1051.62 334.703 1050.71 334.297 1054.64 335.238 C 1074.82 340.08 1093.56 338.026 1113.55 336.94 C 1116.5 345.255 1124.44 341.825 1131.56 343.869 C 1110.73 344.04 1053.18 343.897 1040.56 362.591 C 1040.1 359.224 1039.96 354.908 1039.75 351.441 L 1040.57 349.452 z"/>
<path transform="translate(0,0)" fill="rgb(147,147,138)" d="M 772.533 376.22 C 777.517 364.149 783.038 355.636 790.759 345.385 C 793.279 354.624 795.012 363.013 800.71 370.832 L 799.344 373.73 C 795.913 380.94 794.349 384.812 791.893 392.403 C 785.81 391.143 784.244 390.836 778.083 390.941 C 776.102 386.14 774.326 381.108 772.533 376.22 z"/>
<path transform="translate(0,0)" fill="url(#Gradient3)" d="M 911.959 139.302 C 958.936 136.554 983.057 172.619 992.588 172.331 C 994.721 173.252 996.016 173.676 997.869 175.139 C 999.656 178.475 999.653 177.263 998.868 180.194 C 996.888 181.277 997.096 181.282 994.97 181.934 C 983.926 174.522 976.655 169.73 964.201 164.746 L 970.591 175.975 C 953.239 156.768 935.26 148.437 911.959 139.302 z"/>
<path transform="translate(0,0)" fill="rgb(208,160,137)" d="M 976.438 337.35 L 975.809 344.02 C 974.774 347.496 981.69 358.048 983.753 361.681 C 956.822 343.289 893.929 347.037 861.957 350.561 C 894.573 334.761 919.684 348.791 954.559 343.774 C 960.39 342.935 970.267 339.253 976.438 337.35 z"/>
<path transform="translate(0,0)" fill="rgb(123,117,106)" d="M 1035.48 160.224 C 1048.64 154.317 1059.82 149.011 1073.77 145.189 C 1070.57 150.692 1066.89 156.14 1062.69 160.805 C 1057.91 166.119 1032.99 185.278 1027.16 186.902 L 1026.12 186.354 C 1034.97 171.696 1034.27 167.247 1034.24 149.771 C 1034.84 152.313 1035.2 157.438 1035.48 160.224 z"/>
<path transform="translate(0,0)" fill="rgb(208,160,137)" d="M 786.148 417.268 C 796.418 427.414 803.338 435.758 809.235 448.956 C 803.896 453.817 802.033 455.255 798.137 461.192 L 797.029 459.439 L 797.307 458.53 C 786.882 451.129 787.179 449.101 781.129 437.81 L 779.121 438.057 C 780.596 430.386 782.199 424.131 786.148 417.268 z"/>
<path transform="translate(0,0)" fill="rgb(138,133,120)" d="M 1152.71 89.9958 C 1156.97 96.0272 1159.2 103.156 1157.27 110.49 C 1155.56 112.673 1155.62 115.368 1155.31 118.197 C 1149.55 140.438 1134.38 142.765 1131.77 148.956 L 1133.16 150.211 C 1130.41 154.026 1127.6 154.774 1122.99 156.047 C 1118.7 157.263 1111.87 158.425 1107.31 159.336 C 1121.97 148.569 1129.3 141.97 1138.52 125.989 L 1140.06 126.341 C 1149.72 120.53 1151.86 104.738 1152.7 94.6418 L 1152.71 89.9958 z"/>
<path transform="translate(0,0)" fill="rgb(147,147,138)" d="M 1152.71 89.9958 C 1156.97 96.0272 1159.2 103.156 1157.27 110.49 C 1155.56 112.673 1155.62 115.368 1155.31 118.197 C 1154.74 110.667 1152.31 101.44 1152.7 94.6418 L 1152.71 89.9958 z"/>
<path transform="translate(0,0)" fill="rgb(194,190,172)" d="M 1125.13 98.4382 C 1130.73 98.6062 1135.46 100.402 1140.81 102.068 L 1141.84 101.457 C 1141.29 113.739 1138.52 123.329 1130.69 133.175 L 1111.56 136.675 C 1119.57 121.858 1122.44 114.891 1125.13 98.4382 z"/>
<path transform="translate(0,0)" fill="rgb(194,190,172)" d="M 1072.76 50.7558 C 1080.66 53.0144 1111.16 61.111 1117.14 65.2881 L 1117.42 67.9632 C 1117.02 72.5651 1118.26 75.3257 1119.65 79.7328 C 1103.2 77.8889 1096.29 72.6501 1086.21 71.1182 C 1082.41 63.9974 1077.54 57.2749 1072.76 50.7558 z"/>
<path transform="translate(0,0)" fill="rgb(123,117,106)" d="M 1078.39 143.857 C 1087.96 141.881 1097.24 139.921 1106.9 138.397 C 1092.68 160.819 1068.75 167.773 1045.45 181.025 C 1059.62 168.824 1068.39 159.921 1078.39 143.857 z"/>
<path transform="translate(0,0)" fill="rgb(123,117,106)" d="M 997.122 165.522 C 1008.67 166.37 1020.27 164.946 1031.27 161.331 C 1030.8 168.64 1030.57 171.301 1028.36 178.275 C 1023.15 183.304 1019.08 186.739 1013.43 191.286 L 997.122 165.522 z"/>
<path transform="translate(0,0)" fill="rgb(255,255,254)" d="M 1086.21 71.1182 C 1096.29 72.6501 1103.2 77.8889 1119.65 79.7328 C 1121.32 85.9933 1121.62 88.7978 1122.23 95.3149 C 1112.44 92.1018 1102.81 92.0733 1092.84 94.527 C 1090.35 84.4048 1089.85 81.2513 1086.21 71.1182 z"/>
<path transform="translate(0,0)" fill="rgb(123,117,106)" d="M 1128.03 161.083 C 1142.42 162.563 1158.56 161.201 1171.99 167.5 C 1173.24 172.426 1192.56 186.049 1197.18 197.535 C 1167.05 178.44 1161.27 173.805 1128.03 161.083 z"/>
<path transform="translate(0,0)" fill="rgb(147,147,138)" d="M 764.304 352.382 C 774.527 346.333 795.005 326.296 805.035 324.236 C 790.286 341.682 781.446 351.393 770.864 372.225 C 768.686 365.701 766.311 358.934 764.304 352.382 z"/>
<path transform="translate(0,0)" fill="url(#Gradient2)" d="M 1111.56 136.675 L 1130.69 133.175 C 1120.17 147.799 1103.46 158.724 1087.03 165.803 C 1096.13 155.968 1104.12 147.883 1111.56 136.675 z"/>
<path transform="translate(0,0)" fill="rgb(138,133,120)" d="M 1234.93 214.498 C 1241.26 227.685 1246.57 255.527 1252.13 271.518 C 1248.51 265.863 1244.83 259.251 1241.36 253.36 C 1238.54 248.572 1231.82 239.211 1229.68 234.846 C 1231.35 231.006 1233.88 219.078 1234.93 214.498 z"/>
<path transform="translate(0,0)" fill="rgb(254,225,190)" d="M 809.235 448.956 C 810.136 451.592 811.744 455.822 812.432 458.36 C 807.694 467.042 804.183 473.438 804.011 483.559 L 800.942 487.397 C 797.649 478.41 796.858 470.587 798.137 461.192 C 802.033 455.255 803.896 453.817 809.235 448.956 z"/>
<path transform="translate(0,0)" fill="rgb(91,84,79)" d="M 1133.16 150.211 C 1144.43 150.893 1169.42 155.483 1177.35 162.9 L 1176.36 163.435 C 1169.49 160.421 1153.76 154.859 1146.68 158.753 C 1142.09 159.033 1140.18 159.891 1136.45 157.43 C 1132.91 155.094 1127.49 155.85 1122.99 156.047 C 1127.6 154.774 1130.41 154.026 1133.16 150.211 z"/>
<path transform="translate(0,0)" fill="rgb(91,84,79)" d="M 803.039 373.842 C 805.517 380.668 806.999 394.353 799.678 398.74 C 796.465 397.791 795.612 396.252 794.882 392.81 C 796.825 386.568 798.898 378.877 803.039 373.842 z"/>
<path transform="translate(0,0)" fill="rgb(147,147,138)" d="M 1146.68 158.753 C 1153.76 154.859 1169.49 160.421 1176.36 163.435 L 1177.41 164.934 C 1176.29 165.412 1151.82 159.18 1146.68 158.753 z"/>
<path transform="translate(0,0)" fill="rgb(239,201,161)" d="M 804.011 483.559 C 806.269 491.137 811.966 498.655 816.47 505.342 C 809.467 499.341 805.666 495.407 800.942 487.397 L 804.011 483.559 z"/>
<path transform="translate(0,0)" fill="rgb(123,117,106)" d="M 999.357 175.672 C 1003.46 181.041 1005.74 186.388 1009.63 191.818 C 1004.72 188.549 999.838 185.254 994.97 181.934 C 997.096 181.282 996.888 181.277 998.868 180.194 C 999.653 177.263 999.656 178.475 997.869 175.139 L 999.357 175.672 z"/>
<path transform="translate(0,0)" fill="rgb(255,255,254)" d="M 828.191 237.835 L 829.597 238.65 C 830.028 241.98 828.966 268.714 828.967 274.776 C 810.956 282.627 796.351 296.906 783.833 311.697 L 782.589 311.1 C 783.353 301.82 789.919 276.16 793.361 266.986 C 799.074 251.759 813.86 243.872 828.191 237.835 z"/>
<path transform="translate(0,0)" fill="rgb(194,190,172)" d="M 961.892 323.143 L 963.696 323.002 C 968.485 325.064 970.984 331.111 973.239 335.674 C 951.906 342.115 931.737 341.935 909.742 340.394 C 886.838 338.789 878.775 338.979 858.656 349.407 L 849.245 352.601 C 865.938 332.788 873.317 324.814 900.992 327.805 C 921.141 329.982 942.486 328.905 961.892 323.143 z"/>
<path transform="translate(0,0)" fill="rgb(255,255,254)" d="M 1177.98 189.552 C 1198.56 199.073 1223.6 229.225 1234.53 249.37 C 1231.96 248.148 1227.28 244.157 1224.77 242.188 C 1212.81 232.803 1203.35 225.26 1188.04 222.569 C 1184.96 211.337 1181.53 200.647 1177.98 189.552 z"/>
<path transform="translate(0,0)" fill="rgb(138,133,120)" d="M 837.775 201.015 C 838.846 203.657 832.536 228.544 831.35 234.308 C 818.591 238.023 811.691 243.266 801.216 250.883 L 800.532 250.289 C 806.001 238.174 814.427 219.154 823.678 209.842 C 825.447 208.061 835.08 202.569 837.775 201.015 z"/>
<path transform="translate(0,0)" fill="rgb(123,117,106)" d="M 861.048 171.336 C 872.487 170.465 886.01 171.068 897.43 171.857 C 876.448 177.1 866.62 180.428 847.868 191.237 C 839.242 196.354 832.079 200.483 824.054 206.517 C 832.856 193.333 844.696 173.814 861.048 171.336 z"/>
<path transform="translate(0,0)" fill="rgb(255,255,254)" d="M 805.512 406.699 C 805.213 405.723 805.292 404.102 805.27 403.057 C 807.472 399.041 810.846 396.559 814.316 393.475 C 814.208 397.82 814.485 401.696 814.753 406.025 C 815.959 425.355 819.114 454.404 823.888 473.18 C 810.492 452.007 808.281 430.749 805.512 406.699 z"/>
<path transform="translate(0,0)" fill="rgb(147,147,138)" d="M 805.512 406.699 C 805.213 405.723 805.292 404.102 805.27 403.057 C 807.472 399.041 810.846 396.559 814.316 393.475 C 814.208 397.82 814.485 401.696 814.753 406.025 C 811.707 405.134 808.285 404.81 805.512 406.699 z"/>
<path transform="translate(0,0)" fill="rgb(123,117,106)" d="M 880.498 160.391 C 898.84 159.075 914.514 166.47 931.074 173.128 C 922.843 171.515 914.597 170.92 906.248 170.144 C 885.222 167.891 874.37 167.018 853.456 169.609 C 864.085 161.29 867.282 161.252 880.498 160.391 z"/>
<path transform="translate(0,0)" fill="rgb(255,255,254)" d="M 769.027 280.595 C 771.344 285.896 765.342 301.566 763.336 308.385 C 760.655 302.436 766.761 286.799 769.027 280.595 z"/>
<path transform="translate(0,0)" fill="rgb(254,225,190)" d="M 994.009 392.01 C 1004.57 386.625 1011.15 386.493 1022.63 388.144 C 1027.07 389.366 1028.57 389.699 1032.75 391.989 C 1034.27 399.209 1036.8 409.519 1037.15 416.636 L 1039.13 419.053 C 1044.18 434.12 1047.36 441.505 1055.29 455.279 C 1061.08 461.97 1065.57 466.901 1073.8 470.621 C 1103.99 478.376 1152.74 479.3 1180.95 465.317 C 1192.33 456.31 1194.99 447.355 1199.25 434.115 C 1205.46 444.189 1198.38 471.829 1193.67 482.222 C 1187.85 495.056 1162.54 535.628 1168.89 548.415 C 1171.81 545.848 1172.02 544.677 1173.68 541.017 C 1175.81 537.917 1177.91 534.803 1180 531.675 C 1179.76 580.572 1172.8 617.361 1136.23 651.603 C 1131.47 656.062 1117.77 670.859 1112.53 672.568 C 1109.82 671.986 1109.49 671.56 1107.34 669.934 C 1104.83 670.924 1104.42 671.959 1102.85 674.159 C 1104.62 677.401 1104.44 676.088 1104.33 679.562 C 1103.96 679.979 1103.09 681.05 1102.68 681.278 C 1091.22 690.879 1083.87 714.636 1065.76 716.733 C 1042.38 719.44 1011.98 720.824 988.627 719.582 C 984.652 719.345 980.688 718.946 976.746 718.387 C 957.909 714.198 952.71 704.177 941.279 689.052 C 938.227 685.03 934.698 681.026 931.407 677.164 C 921.593 665.122 927.359 677.057 916.411 669.044 C 913.388 665.917 912.097 665.026 910.626 660.896 L 907.255 660.008 C 901.324 659.093 888.076 642.425 877.284 640.104 C 845.544 608.363 849.849 546.693 834.981 505.198 L 833.933 503.945 L 834.216 502.308 L 837.784 500.774 C 833.023 492.469 830.804 487.504 828.09 478.368 C 822.881 453.87 817.695 418.941 816.206 393.889 L 817.026 393.294 C 819.274 397.597 822.818 416.706 824.327 422.497 C 830.378 445.716 833.636 459.888 854.713 472.791 C 882.776 482.755 931.341 482.025 959.344 472.522 C 982.507 454.917 989.962 419.405 994.009 392.01 z"/>
<path transform="translate(0,0)" fill="rgb(208,160,137)" d="M 1102.85 674.159 C 1104.62 677.401 1104.44 676.088 1104.33 679.562 C 1103.96 679.979 1103.09 681.05 1102.68 681.278 C 1091.22 690.879 1083.87 714.636 1065.76 716.733 C 1042.38 719.44 1011.98 720.824 988.627 719.582 C 984.652 719.345 980.688 718.946 976.746 718.387 C 986.971 717.982 1003.48 713.526 1014.59 712.789 C 1028.12 711.891 1041.13 712.571 1054.63 711.806 C 1080.24 710.355 1088.17 691.415 1102.85 674.159 z"/>
<path transform="translate(0,0)" fill="rgb(208,160,137)" d="M 1039.13 419.053 C 1044.18 434.12 1047.36 441.505 1055.29 455.279 C 1051.33 467.843 1046.13 479.982 1039.77 491.516 C 1038.83 486.463 1036.82 477.036 1037.13 472.262 C 1042.37 463.945 1039.39 429.262 1039.13 419.053 z"/>
<path transform="translate(0,0)" fill="rgb(208,160,137)" d="M 854.713 472.791 C 882.776 482.755 931.341 482.025 959.344 472.522 C 950.983 487.531 868.832 492.263 854.713 472.791 z"/>
<path transform="translate(0,0)" fill="rgb(208,160,137)" d="M 1073.8 470.621 C 1103.99 478.376 1152.74 479.3 1180.95 465.317 C 1169.95 485.61 1085.82 485.784 1073.8 470.621 z"/>
<path transform="translate(0,0)" fill="rgb(4,4,4)" d="M 907.255 660.008 C 903.177 649.379 881.49 590.307 884.719 582.311 L 885.588 582.662 C 891.369 607.822 900.043 637.238 910.626 660.896 L 907.255 660.008 z"/>
<path transform="translate(0,0)" fill="rgb(4,4,4)" d="M 837.784 500.774 C 844.742 511.386 859.524 534.113 863.642 546.062 C 855.569 537.756 839.291 506.113 834.981 505.198 L 833.933 503.945 L 834.216 502.308 L 837.784 500.774 z"/>
<path transform="translate(0,0)" fill="rgb(4,4,4)" d="M 1037.15 416.636 L 1039.13 419.053 C 1039.39 429.262 1042.37 463.945 1037.13 472.262 C 1035.8 464.795 1037.07 427.162 1037.15 416.636 z"/>
<path transform="translate(0,0)" fill="rgb(208,160,137)" d="M 985.908 511.591 C 1014.13 525.659 1005.05 529.618 1042.46 519.166 C 1047.18 517.848 1051.02 519.494 1055.38 519.196 C 1056.95 519.089 1060.25 516.188 1061.39 515.14 C 1062.87 513.789 1064.41 512.831 1066.13 511.712 C 1061.46 521.933 1057.38 528.872 1048.82 536.585 C 1036.28 547.888 1015.62 551.765 1000.3 544.161 C 995.344 541.698 982.941 533.961 979.656 529.705 C 978.345 525.119 975.626 522.322 972.63 518.601 L 985.908 511.591 z"/>
<path transform="translate(0,0)" fill="rgb(4,4,4)" d="M 983.008 519.65 C 990.077 519.956 1005.35 527.202 1005.52 534.566 L 1003.37 534.668 C 999.524 531.094 995.139 526.863 990.635 524.093 C 987.295 522.038 985.22 523.454 981.545 524.563 L 980.901 523.027 L 983.008 519.65 z"/>
<path transform="translate(0,0)" fill="rgb(4,4,4)" d="M 1042.42 522.989 C 1045.15 523.079 1047.26 522.781 1049.42 524.314 C 1048.03 525.504 1041.44 527.192 1038.55 528.681 C 1036.25 530.398 1036.11 530.324 1033.51 531.219 L 1033.01 530.424 C 1036.18 525.917 1037.56 525.488 1042.42 522.989 z"/>
<path transform="translate(0,0)" fill="rgb(4,4,4)" d="M 1096.04 580.898 C 1096.65 581.383 1096.41 581.143 1096.95 581.815 C 1098.49 583.731 1098.38 583.638 1098.12 586.011 C 1097.28 586.854 1096.57 587.561 1095.5 588.118 C 1082.67 594.816 984.431 597.981 964.74 597.272 C 956.918 596.99 949.856 595.909 942.261 594.142 C 940.876 593.676 941.43 593.822 940.231 592.51 L 940.86 590.501 L 943.076 589.432 C 946.335 590.471 949.592 591.321 952.956 591.958 C 971.872 595.542 1065.92 591.887 1084.62 587.049 C 1088.87 585.951 1092.46 583.344 1096.04 580.898 z"/>
<path transform="translate(0,0)" fill="rgb(4,4,4)" d="M 1069.5 501.856 C 1078.68 507.216 1115 554.249 1120.82 566.463 C 1126.71 578.816 1124.44 589.308 1120.28 601.694 C 1119.82 601.517 1118.49 601.204 1118.67 600.306 C 1120.24 592.302 1122.04 574.855 1118.15 567.585 C 1105.52 543.998 1084.95 524.385 1070.01 502.623 L 1069.5 501.856 z"/>
<path transform="translate(0,0)" fill="rgb(4,4,4)" d="M 949.567 524.893 C 950.955 527.366 946.997 531.477 945.162 534.311 C 925.44 564.776 913.463 565.614 918.74 601.472 C 896.989 585.422 940.038 537.49 949.567 524.893 z"/>
<path transform="translate(0,0)" fill="rgb(4,4,4)" d="M 1149.04 566.604 C 1157.3 581.796 1133.97 642.393 1125.42 657.243 C 1124.93 655.079 1140.2 612.587 1142.64 606.814 C 1148.63 592.634 1145.69 578.267 1149.04 566.604 z"/>
<path transform="translate(0,0)" fill="rgb(255,255,254)" d="M 1002.89 484.535 C 1010.22 490.315 1010.07 502.053 1003.32 508.651 C 994.701 504.369 1000.26 491.452 1002.89 484.535 z"/>
<path transform="translate(0,0)" fill="rgb(42,31,26)" d="M 988.751 425.556 C 992.663 433.657 993.983 467.593 993.54 477.649 C 990.536 473.901 987.964 432.024 988.751 425.556 z"/>
<path transform="translate(0,0)" fill="rgb(4,4,4)" d="M 1042.88 617.409 C 1045.5 617.323 1045.94 617.076 1048.3 618.243 C 1046.25 620.656 1020.31 622.207 1015.24 622.647 L 1011.98 623 C 1010.37 622.317 1011.21 622.471 1009.4 622.892 L 1009.08 621.656 C 1016.58 618.939 1034.69 617.902 1042.88 617.409 z"/>
<path transform="translate(0,0)" fill="rgb(4,4,4)" d="M 979.656 529.705 C 969.387 523.707 961.805 509.758 969.695 499.631 L 970.692 499.863 C 970.058 507.174 969.626 511.686 972.63 518.601 C 975.626 522.322 978.345 525.119 979.656 529.705 z"/>
<path transform="translate(0,0)" fill="rgb(255,255,254)" d="M 1138.65 906.109 C 1147.9 901.102 1153.82 892.646 1161.43 888.271 L 1162.54 889.732 C 1154.69 934.68 1140.95 982.571 1129.81 1026.93 C 1127.32 1036.85 1116.17 1070.52 1115.29 1077.38 C 1113.47 1082.8 1110.7 1092.02 1108.58 1097.01 C 1103.85 1101.33 1082.43 1146.41 1074.37 1158.33 C 1073.39 1155.2 1071.51 1148.53 1070.06 1146 L 1069.59 1140.04 C 1067.82 1119.02 1058.74 1012.77 1051.33 997.221 L 1050.23 996.546 C 1049.39 993.309 1049.2 994.781 1050.53 991.954 C 1050.38 988.659 1049.75 986.27 1049.05 983.075 C 1048.94 981.075 1048.16 978.026 1047.71 975.955 C 1044.88 962.651 1041.83 949.398 1038.54 936.201 C 1039.66 932.974 1071.14 902.526 1077.23 895.399 C 1084.94 900.951 1098.85 914.192 1107.51 915.909 C 1111.98 920.387 1116.52 926.153 1122.58 927.326 C 1128.83 925.611 1133.98 913.348 1138.65 906.109 z"/>
<path transform="translate(0,0)" fill="rgb(194,190,172)" d="M 1047.71 975.955 C 1056.86 969.902 1093.37 941.069 1098.96 940.3 C 1088.19 953.702 1063.39 979.941 1050.53 991.954 C 1050.38 988.659 1049.75 986.27 1049.05 983.075 C 1048.94 981.075 1048.16 978.026 1047.71 975.955 z"/>
<path transform="translate(0,0)" fill="rgb(4,4,4)" d="M 1098.96 940.3 C 1101.56 937.683 1104.04 934.618 1107.36 933.359 C 1100.17 946.615 1052.18 991.21 1051.33 997.221 L 1050.23 996.546 C 1049.39 993.309 1049.2 994.781 1050.53 991.954 C 1063.39 979.941 1088.19 953.702 1098.96 940.3 z"/>
<path transform="translate(0,0)" fill="rgb(255,255,254)" d="M 883.942 675.907 C 884.482 685.146 882.734 700.558 885.891 707.481 C 904.03 747.265 945.383 772.379 981.787 793.461 C 991.069 798.836 1002.51 804.612 1010.78 810.7 C 1006.97 811.091 999.643 812.193 996.249 811.359 L 995.36 807.461 C 978.783 813.688 923.093 907.552 911.015 928.4 C 892.177 905.164 870.037 845.208 862.796 816.077 C 856.12 787.089 864.284 748.789 869.525 719.261 C 872.776 699.414 872.242 691.695 883.942 675.907 z"/>
<path transform="translate(0,0)" fill="rgb(208,160,137)" d="M 1253.16 390.001 C 1265.51 398.296 1262.16 414.876 1263.54 428.33 C 1264.64 439.038 1264.66 451.416 1263.35 462.065 C 1256.47 490.772 1237.97 517.992 1222.68 542.823 C 1217.66 550.993 1207.58 561.736 1197.35 558.903 C 1196.11 557.725 1194.13 555.922 1194.52 553.61 C 1198.04 533.076 1202.22 508.118 1206.77 488.173 C 1207.95 483.015 1215.91 467.04 1218.27 460.62 L 1214.62 461.044 C 1217.37 454.255 1219 446.991 1220.61 439.867 L 1224.24 438.907 C 1225.55 438.495 1242.65 415.732 1247.33 411.57 C 1252.68 402.976 1252.5 400.305 1253.16 390.001 z"/>
<path transform="translate(0,0)" fill="rgb(4,4,4)" d="M 1247.33 411.57 C 1250.08 412.585 1252.65 413.129 1254.3 415.466 C 1248.35 418.281 1248.47 413.859 1243.02 420.926 C 1246.46 427.987 1252.25 440.459 1251.82 448.592 C 1248.47 443.118 1245.08 430.087 1241.51 422.652 C 1237.11 428.127 1228.04 439.915 1223.3 444.246 C 1231.1 451.056 1238.43 457.359 1239.08 468.567 C 1240.06 485.53 1225.22 495.803 1214.7 506.603 C 1211.04 510.363 1208.13 514.586 1204.47 518.321 L 1203.27 518.08 C 1203.38 513.097 1233.23 481.722 1219.65 461.236 L 1218.27 460.62 L 1214.62 461.044 C 1217.37 454.255 1219 446.991 1220.61 439.867 L 1224.24 438.907 C 1225.55 438.495 1242.65 415.732 1247.33 411.57 z"/>
<path transform="translate(0,0)" fill="rgb(208,160,137)" d="M 1222.79 447.489 C 1223.87 448.345 1224.9 449.255 1225.88 450.217 C 1242.75 466.423 1237.16 481.519 1222.72 495.925 C 1221.86 496.569 1220.5 497.205 1219.54 497.707 C 1219.01 496.25 1223.01 486.739 1223.9 483.974 C 1229.18 467.543 1217.18 461.054 1222.79 447.489 z"/>
<path transform="translate(0,0)" fill="rgb(53,53,52)" d="M 1169.88 868.105 C 1181.84 857.877 1232.88 877.759 1249.77 879.615 C 1255.47 880.242 1289.15 885.611 1292.68 887.145 L 1294.31 889.173 C 1294.4 894.646 1298.26 900.088 1298.28 907.183 C 1293.43 911.928 1247.36 932.267 1239.54 934.185 C 1231.67 929.393 1171.33 872.999 1169.88 868.105 z"/>
<path transform="translate(0,0)" fill="rgb(208,160,137)" d="M 1201.65 484.795 C 1201.79 492.394 1198.97 490.304 1199.93 493.702 C 1201.18 498.135 1201.77 496.55 1200.51 501.22 L 1199.85 498.134 C 1192.12 531.575 1189.23 577.272 1179.6 608.781 C 1171.21 636.266 1119.51 674.682 1096.01 695.021 C 1098.22 690.922 1101.36 685.583 1102.68 681.278 C 1103.09 681.05 1103.96 679.979 1104.33 679.562 C 1104.44 676.088 1104.62 677.401 1102.85 674.159 C 1104.42 671.959 1104.83 670.924 1107.34 669.934 C 1109.49 671.56 1109.82 671.986 1112.53 672.568 C 1117.77 670.859 1131.47 656.062 1136.23 651.603 C 1172.8 617.361 1179.76 580.572 1180 531.675 C 1177.91 534.803 1175.81 537.917 1173.68 541.017 C 1173.47 538.601 1174.9 534.599 1174.41 530.955 C 1173.87 526.991 1175.67 522.224 1179.6 520.387 C 1182.09 517.911 1199.21 489.14 1201.65 484.795 z"/>
<path transform="translate(0,0)" fill="rgb(4,4,4)" d="M 1201.65 484.795 C 1201.79 492.394 1198.97 490.304 1199.93 493.702 C 1201.18 498.135 1201.77 496.55 1200.51 501.22 L 1199.85 498.134 L 1197.78 497.844 C 1189.5 507.291 1181.6 526.756 1173.1 535.274 C 1175.17 530.295 1177.18 525.197 1179.6 520.387 C 1182.09 517.911 1199.21 489.14 1201.65 484.795 z"/>
<path transform="translate(0,0)" fill="rgb(208,160,137)" d="M 1211.58 386.761 L 1212.01 385.855 L 1212.67 385.883 C 1215.71 385.982 1216 385.875 1218.94 385.156 L 1220.75 386.314 L 1220.54 387.451 L 1218.1 386.957 C 1215.89 389.996 1216.9 401.565 1217.05 405.581 L 1219.49 403.392 L 1225.64 403.562 C 1226.01 409.251 1221.74 433.035 1220.61 439.867 C 1219 446.991 1217.37 454.255 1214.62 461.044 C 1213.36 464.67 1211.68 471.266 1208.81 473.411 L 1209.01 475.328 L 1207.73 475.528 C 1206.49 477.208 1205.58 478.492 1204.43 480.269 L 1203.66 479.943 C 1203.22 480.962 1201.87 483.9 1201.65 484.795 C 1199.21 489.14 1182.09 517.911 1179.6 520.387 C 1175.67 522.224 1173.87 526.991 1174.41 530.955 C 1174.9 534.599 1173.47 538.601 1173.68 541.017 C 1172.02 544.677 1171.81 545.848 1168.89 548.415 C 1162.54 535.628 1187.85 495.056 1193.67 482.222 C 1198.38 471.829 1205.46 444.189 1199.25 434.115 C 1201.7 422.496 1203.11 411.272 1205.15 399.625 C 1206.33 392.91 1206.17 390.514 1211.58 386.761 z"/>
<path transform="translate(0,0)" fill="rgb(194,190,172)" d="M 1219.49 403.392 L 1225.64 403.562 C 1226.01 409.251 1221.74 433.035 1220.61 439.867 C 1219 446.991 1217.37 454.255 1214.62 461.044 C 1213.36 464.67 1211.68 471.266 1208.81 473.411 C 1212.9 450.228 1215.82 429.039 1217.05 405.581 L 1219.49 403.392 z"/>
<path transform="translate(0,0)" fill="rgb(4,4,4)" d="M 1211.58 386.761 L 1212.01 385.855 L 1212.67 385.883 C 1215.71 385.982 1216 385.875 1218.94 385.156 L 1220.75 386.314 L 1220.54 387.451 L 1218.1 386.957 C 1215.89 389.996 1216.9 401.565 1217.05 405.581 C 1215.82 429.039 1212.9 450.228 1208.81 473.411 L 1209.01 475.328 L 1207.73 475.528 C 1206.49 477.208 1205.58 478.492 1204.43 480.269 L 1203.66 479.943 C 1210.12 453.07 1213.53 419.473 1213.74 391.501 C 1213.77 388.212 1213.48 388.426 1211.58 386.761 z"/>
<path transform="translate(0,0)" fill="rgb(194,190,172)" d="M 1035.21 925.314 C 1043.06 913.42 1058.87 874.616 1065.61 859.108 C 1078.2 879.018 1092.21 898 1107.51 915.909 C 1098.85 914.192 1084.94 900.951 1077.23 895.399 C 1071.14 902.526 1039.66 932.974 1038.54 936.201 L 1035.21 925.314 z"/>
<path transform="translate(0,0)" fill="rgb(147,147,138)" d="M 1244.75 266.651 C 1253.25 276.863 1257.08 286.68 1261.47 299.232 C 1265.58 317.712 1266.18 333.452 1260.78 353.038 C 1260.63 353.602 1260.07 354.018 1259.62 354.412 C 1258.49 352.752 1254.46 343.342 1253.1 340.453 C 1246 325.368 1239.73 316.455 1228.3 304.592 C 1230.22 302.164 1234.21 298.448 1236.53 296.15 C 1241.18 301.479 1244.01 306.832 1247.53 312.905 C 1245.98 308.317 1245.05 305.362 1242.8 301.047 C 1244.38 289.653 1245.03 278.15 1244.75 266.651 z"/>
<path transform="translate(0,0)" fill="rgb(147,147,138)" d="M 1215.26 315.499 C 1231.3 331.939 1246.14 357.427 1247.02 381.334 C 1247.09 383.33 1246.69 384.336 1245.63 385.917 C 1242.34 387.208 1243.75 387.032 1239.96 385.967 C 1232.33 377.257 1226.24 362.367 1216.96 357.145 C 1213.56 345.003 1210.13 334.61 1206.54 322.795 C 1209.13 320.403 1212.49 317.786 1215.26 315.499 z"/>
<path transform="translate(0,0)" fill="rgb(123,117,106)" d="M 1219.46 152.932 C 1247.81 180.466 1261.42 248.582 1262.87 286.645 C 1262.93 288.092 1262.82 289.646 1262.55 291.077 C 1253.31 272.164 1250.6 254.332 1244.58 234.312 C 1241.25 223.221 1236.29 211.747 1233.25 200.937 C 1234.31 190.841 1222.08 164.102 1219.46 152.932 z"/>
<path transform="translate(0,0)" fill="rgb(147,147,138)" d="M 1225.65 305.914 C 1219.24 300.137 1215.17 298.267 1208.36 291.307 L 1209.05 290.991 C 1217.38 295.406 1221.09 298.677 1228.3 304.592 C 1239.73 316.455 1246 325.368 1253.1 340.453 C 1254.46 343.342 1258.49 352.752 1259.62 354.412 L 1256.66 355.993 C 1258.92 368.015 1256.02 378.054 1252.21 389.479 C 1243.38 354.312 1243.84 342.953 1217.02 313.615 C 1219.5 311.095 1222.93 308.279 1225.65 305.914 z"/>
<path transform="translate(0,0)" fill="rgb(4,4,4)" d="M 1225.65 305.914 C 1219.24 300.137 1215.17 298.267 1208.36 291.307 L 1209.05 290.991 C 1217.38 295.406 1221.09 298.677 1228.3 304.592 C 1239.73 316.455 1246 325.368 1253.1 340.453 C 1254.46 343.342 1258.49 352.752 1259.62 354.412 L 1256.66 355.993 C 1250.64 336.454 1240.05 320.3 1225.65 305.914 z"/>
<path transform="translate(0,0)" fill="rgb(194,190,172)" d="M 919.239 922.757 C 926.226 910.092 947.534 875.045 956.132 863.57 C 959.118 871.652 974.994 916.366 978.695 920.852 L 979.891 926.514 C 973.429 922.654 960.701 897.716 956.264 889.653 C 950.216 895.904 926.096 920.551 919.239 922.757 z"/>
<path transform="translate(0,0)" fill="url(#Gradient1)" d="M 1230.63 399.092 C 1232.22 397.685 1233.85 396.309 1235.49 394.965 C 1241.76 389.895 1245.53 389.239 1253.16 390.001 C 1252.5 400.305 1252.68 402.976 1247.33 411.57 C 1242.65 415.732 1225.55 438.495 1224.24 438.907 C 1224.01 434.099 1229.42 405.684 1230.63 399.092 z"/>
<path transform="translate(0,0)" fill="rgb(31,30,30)" d="M 1244 938.437 C 1248.96 932.461 1290.67 919.11 1298.66 911.815 C 1302.77 908.06 1301.81 908.428 1302.77 902.67 C 1303.65 905.338 1305.14 909.443 1303.56 911.906 C 1294.85 925.456 1265.51 935.22 1252.13 943.379 L 1244 938.437 z"/>
<path transform="translate(0,0)" fill="rgb(194,190,172)" d="M 1170.9 845.505 C 1167.44 859.657 1165.69 875.169 1162.54 889.732 L 1161.43 888.271 C 1153.82 892.646 1147.9 901.102 1138.65 906.109 C 1150.15 886.315 1160.91 866.099 1170.9 845.505 z"/>
<path transform="translate(0,0)" fill="rgb(192,138,122)" d="M 877.284 640.104 C 888.076 642.425 901.324 659.093 907.255 660.008 L 910.626 660.896 C 912.097 665.026 913.388 665.917 916.411 669.044 L 917.163 672.694 L 915.855 673.799 C 906.176 667.987 884.686 648.659 877.284 640.104 z"/>
<path transform="translate(0,0)" fill="rgb(208,160,137)" d="M 916.411 669.044 C 927.359 677.057 921.593 665.122 931.407 677.164 C 934.698 681.026 938.227 685.03 941.279 689.052 L 939.527 692.729 L 938.841 691.896 C 935.661 690.112 918.415 676.383 915.855 673.799 L 917.163 672.694 L 916.411 669.044 z"/>
<path transform="translate(0,0)" fill="rgb(4,4,4)" d="M 931.407 677.164 C 934.698 681.026 938.227 685.03 941.279 689.052 L 939.527 692.729 L 938.841 691.896 C 936.013 687.637 931.519 682.027 931.407 677.164 z"/>
<path transform="translate(0,0)" fill="rgb(192,138,122)" d="M 816.356 548.262 C 827.324 554.38 829.859 555.164 842.284 557.052 C 843.107 560.328 843.322 560.907 841.565 563.51 C 831.935 566.579 820.759 556.008 816.356 548.262 z"/>
<path transform="translate(0,0)" fill="rgb(255,255,254)" d="M 1195.89 299.309 L 1196.98 299.355 C 1204.33 304.895 1208.71 309.114 1215.26 315.499 C 1212.49 317.786 1209.13 320.403 1206.54 322.795 C 1203.35 314.882 1198.72 306.984 1195.89 299.309 z"/>
<path transform="translate(0,0)" fill="rgb(208,160,137)" d="M 1206.19 332.167 C 1207.96 337.909 1212.51 351.306 1211.95 356.709 C 1208.63 355.629 1203.75 354.514 1200.24 353.613 C 1204.22 350.621 1204.2 339.931 1205.93 333.173 L 1206.19 332.167 z"/>
<path transform="translate(0,0)" fill="rgb(138,133,120)" d="M 1217.05 405.581 C 1216.9 401.565 1215.89 389.996 1218.1 386.957 L 1220.54 387.451 C 1223.2 390.506 1226.55 393.702 1227.75 397.404 C 1223.68 403.101 1221.63 401.194 1219.49 403.392 L 1217.05 405.581 z"/>
<path transform="translate(0,0)" fill="rgb(53,53,52)" d="M 1213.22 919.289 C 1217.44 920.014 1222.77 926.507 1225.77 929.869 C 1218.85 929.553 1216.7 924.612 1213.22 919.289 z"/>
<path transform="translate(0,0)" fill="rgb(4,4,4)" d="M 1220.06 365.523 L 1221.31 367.324 L 1223.24 367.335 C 1222.97 371.799 1222.11 378.49 1221.08 382.806 L 1221.49 382.049 L 1220.63 382.817 L 1221.73 380.906 L 1219.92 379.787 L 1219.71 375.875 L 1220.06 365.523 z"/>
<path transform="translate(0,0)" fill="rgb(53,53,52)" d="M 1035.6 1314.97 C 1037.48 1322.67 1039.58 1318.98 1038.43 1321.79 L 1037.83 1322.03 C 1035.16 1323.15 1034.45 1323.64 1032.09 1325.3 L 1035.6 1314.97 z"/>
<path transform="translate(0,0)" fill="rgb(4,4,4)" d="M 1007.44 986.104 L 1006.18 983.836 C 1006.06 979.868 1005.95 979.205 1008.04 975.884 L 1010.56 975.669 L 1007.44 986.104 z"/>
<path transform="translate(0,0)" fill="rgb(194,190,172)" d="M 1163.26 670.9 C 1187.2 706.242 1180.17 784.792 1173.28 824.746 C 1170.35 841.763 1143.71 893.115 1132.72 907.191 C 1130.17 913.38 1126.26 919.308 1122.46 924.775 C 1102.73 906.157 1086.54 883.341 1071.54 860.861 C 1065.76 852.187 1038.26 806.139 1029.25 806.39 L 1031.39 811.941 L 1030.57 812.927 C 1024.12 812.5 1017.68 811.964 1011.24 811.319 C 1022.86 802.862 1030.1 800.887 1043.53 795.975 C 1082.65 773.91 1141.71 738.616 1162.69 695.876 C 1164.42 692.343 1162.3 679.496 1163.26 670.9 z"/>
<path transform="translate(0,0)" fill="rgb(255,255,254)" d="M 1043.53 795.975 C 1055.02 801.263 1064.71 808.415 1075.31 815.115 C 1099.1 830.136 1120.34 845.496 1142.32 863.142 C 1140.61 874.367 1138.64 884.997 1135.36 895.88 C 1134.23 899.617 1132.76 903.297 1132.72 907.191 C 1130.17 913.38 1126.26 919.308 1122.46 924.775 C 1102.73 906.157 1086.54 883.341 1071.54 860.861 C 1065.76 852.187 1038.26 806.139 1029.25 806.39 L 1031.39 811.941 L 1030.57 812.927 C 1024.12 812.5 1017.68 811.964 1011.24 811.319 C 1022.86 802.862 1030.1 800.887 1043.53 795.975 z"/>
<path transform="translate(0,0)" fill="rgb(208,160,137)" d="M 1160.98 642.701 C 1160.41 658.694 1159.37 677.3 1157.79 693.275 C 1156.98 701.53 1146.72 713.18 1141.65 719.028 C 1115.27 748.073 1081.77 770.52 1047.47 789.11 C 1036 795.323 1023.02 798.703 1011.89 805.437 C 1004.63 801.634 982.771 790.374 976.805 785.646 C 970.162 782.536 955.171 773.526 950.617 768.373 C 948.585 767.217 949.495 767.71 946.698 767.687 L 946.358 765.54 C 940.943 764.372 922.077 747.99 917.534 743.191 C 895.355 719.759 889.36 716.366 888.868 685.048 C 887.968 675.071 887.543 665.146 886.471 655.194 C 908.699 676.312 936.371 691.102 956.826 714.091 C 959.993 717.651 971.476 721.043 975.008 724.533 L 977.307 722.297 L 978.117 723.29 C 1003.65 724.322 1028.75 723.294 1054.27 722.763 C 1052.11 727.423 1040.95 750.225 1038.7 753.219 C 1035.36 760.033 1030.64 768.973 1027.91 775.862 C 1036.25 767.005 1052.34 734.586 1058.65 722.678 C 1075.98 720.089 1077.46 716.933 1089.9 705.572 C 1113.04 684.452 1139.31 665.323 1160.98 642.701 z"/>
<path transform="translate(0,0)" fill="rgb(254,225,190)" d="M 888.868 685.048 L 889.571 676.029 C 892.294 677.933 894.953 682.822 897.571 685.859 C 904.59 694 921.846 715.382 930.605 721.141 C 935.681 736.002 940.933 750.802 946.358 765.54 C 940.943 764.372 922.077 747.99 917.534 743.191 C 895.355 719.759 889.36 716.366 888.868 685.048 z"/>
<path transform="translate(0,0)" fill="rgb(192,138,122)" d="M 978.117 723.29 C 1003.65 724.322 1028.75 723.294 1054.27 722.763 C 1052.11 727.423 1040.95 750.225 1038.7 753.219 C 1035.66 751.999 1017.99 753.36 1012.4 752.139 C 1004.74 750.469 999.75 744.886 994.145 744.093 C 993.015 738.23 982.579 728.142 978.117 723.29 z"/>
<path transform="translate(0,0)" fill="rgb(254,225,190)" d="M 936.507 729.297 L 937.977 728.761 C 946.096 735.73 976.562 776.253 976.805 785.646 C 970.162 782.536 955.171 773.526 950.617 768.373 C 946.712 755.787 940.721 742.434 936.507 729.297 z"/>
<path transform="translate(0,0)" fill="rgb(4,4,4)" d="M 930.605 721.141 C 928.015 714.022 925.587 708.195 924.592 700.623 C 927.485 702.336 934.634 724.937 936.507 729.297 C 940.721 742.434 946.712 755.787 950.617 768.373 C 948.585 767.217 949.495 767.71 946.698 767.687 L 946.358 765.54 C 940.933 750.802 935.681 736.002 930.605 721.141 z"/>
<path transform="translate(0,0)" fill="rgb(4,4,4)" d="M 975.008 724.533 L 977.307 722.297 L 978.117 723.29 C 982.579 728.142 993.015 738.23 994.145 744.093 C 989.832 742.855 978.595 728.686 975.008 724.533 z"/>
<path transform="translate(0,0)" fill="rgb(4,4,4)" d="M 1121.47 684.77 L 1122.12 685.585 C 1122.56 691.197 1098.36 745.699 1094.23 755.047 L 1093.12 753.285 C 1094.66 746.656 1104.51 725.556 1107.57 718.08 C 1111.29 708.974 1117.2 692.769 1121.47 684.77 z"/>
<path transform="translate(0,0)" fill="rgb(53,53,52)" d="M 1004.42 822.012 C 1017.12 818.201 1036.91 830.077 1045.59 838.777 C 1045.32 860.653 1039.7 885.643 1028.77 904.931 C 1020.42 919.671 1010.66 912.882 995.958 916.352 L 994.655 916.67 C 989.97 918.175 987.55 919.344 983.139 921.453 C 979.211 912.075 956.219 859.885 960.454 854.147 L 961.324 856.758 C 963.472 852.454 966.238 846.712 969.262 843.162 C 970.202 840.369 976.423 840.113 976.181 840.401 C 984.744 830.233 990.858 823.348 1004.42 822.012 z"/>
<path transform="translate(0,0)" fill="rgb(53,53,52)" d="M 1297.91 888.587 C 1302.4 887.222 1345.47 891.788 1354.13 892.232 C 1375.61 893.245 1397.12 893.696 1418.62 893.587 C 1432.48 893.417 1516.4 888.196 1522.66 890.957 L 1523.95 892.661 L 1525.26 893.465 C 1519.86 910.398 1513.54 926.876 1508.42 943.998 C 1492.05 1000.45 1477.91 1057.53 1466.06 1115.11 C 1464 1124.99 1456.36 1155.93 1456.03 1163.49 C 1449.84 1181.42 1441.97 1228.34 1442.92 1247.08 C 1444.58 1249.08 1443.57 1248.29 1446.24 1249.25 C 1445.5 1251.96 1442.11 1260.21 1442.03 1261.36 C 1441.52 1268.78 1441.12 1276.54 1440.47 1284 C 1438.95 1300.79 1437.18 1317.55 1435.19 1334.29 C 1431.07 1369.04 1425.65 1403.63 1420.38 1438.23 C 1418.92 1447.79 1420.86 1465.1 1417.53 1470.01 C 1420.47 1491.02 1424.37 1515.15 1426.4 1536 L 1402.62 1536 L 1292.78 1536 L 1282.89 1536 L 1280.19 1536 L 1024.09 1536 L 1021.52 1536 L 982.564 1536 L 978.177 1536 L 965.455 1536 L 962.634 1536 L 960.154 1536 C 959.747 1504.8 960.653 1502.05 972.327 1473.94 L 988.471 1434.54 C 1002.71 1399.5 1017.2 1359.82 1031.96 1325.75 C 1034.23 1334.42 1032.78 1347.77 1037.43 1356.7 C 1038.93 1349.36 1035.89 1330.8 1039.26 1326.59 L 1040.11 1326.68 C 1040.15 1333.94 1038.79 1355.56 1041.57 1360.75 C 1045.33 1360.08 1056.09 1350.72 1060.11 1347.86 C 1089.31 1327.12 1101.32 1298.86 1111.72 1265.94 C 1114.76 1256.35 1127.16 1234.32 1130.82 1223.27 C 1160.48 1189.54 1189.07 1154.47 1213.17 1116.36 C 1221.71 1102.85 1230.25 1081.88 1235.67 1066.85 C 1238.42 1059.23 1237.49 1051.99 1241.63 1043.6 L 1242.12 1042.63 C 1241.49 1038.46 1240.6 1042.7 1236.42 1038.78 C 1252.7 1007.92 1229.72 995.834 1223.33 967.111 C 1222.43 963.076 1228.22 935.997 1225.77 929.869 C 1232.1 932.839 1235.27 938.158 1242.06 940.393 L 1244 938.437 L 1252.13 943.379 C 1265.51 935.22 1294.85 925.456 1303.56 911.906 C 1305.14 909.443 1303.65 905.338 1302.77 902.67 C 1302.03 899.633 1299.07 891.885 1297.91 888.587 z"/>
<path transform="translate(0,0)" fill="rgb(53,53,52)" d="M 1225.77 929.869 C 1232.1 932.839 1235.27 938.158 1242.06 940.393 C 1255.01 949.686 1295.74 973.208 1303.04 980.369 C 1298.08 1001.16 1281.08 1033.96 1271.37 1054.06 C 1209.99 1181.09 1131.65 1299.9 1047.22 1412.71 C 1022.48 1445.76 995.894 1477.58 971.036 1510.54 C 965.863 1517.39 963.668 1527.6 962.634 1536 L 960.154 1536 C 959.747 1504.8 960.653 1502.05 972.327 1473.94 L 988.471 1434.54 C 1002.71 1399.5 1017.2 1359.82 1031.96 1325.75 C 1034.23 1334.42 1032.78 1347.77 1037.43 1356.7 C 1038.93 1349.36 1035.89 1330.8 1039.26 1326.59 L 1040.11 1326.68 C 1040.15 1333.94 1038.79 1355.56 1041.57 1360.75 C 1045.33 1360.08 1056.09 1350.72 1060.11 1347.86 C 1089.31 1327.12 1101.32 1298.86 1111.72 1265.94 C 1114.76 1256.35 1127.16 1234.32 1130.82 1223.27 C 1160.48 1189.54 1189.07 1154.47 1213.17 1116.36 C 1221.71 1102.85 1230.25 1081.88 1235.67 1066.85 C 1238.42 1059.23 1237.49 1051.99 1241.63 1043.6 L 1242.12 1042.63 C 1241.49 1038.46 1240.6 1042.7 1236.42 1038.78 C 1252.7 1007.92 1229.72 995.834 1223.33 967.111 C 1222.43 963.076 1228.22 935.997 1225.77 929.869 z"/>
<path transform="translate(0,0)" fill="rgb(31,30,30)" d="M 1436.13 1081.73 C 1437.49 1090.45 1437.94 1116.98 1438.46 1127.34 C 1442.75 1201.76 1439.87 1276.41 1429.87 1350.28 C 1428.12 1363.55 1412.46 1459.55 1413.69 1463.25 L 1416.25 1463.92 L 1417.53 1470.01 C 1420.47 1491.02 1424.37 1515.15 1426.4 1536 L 1402.62 1536 L 1292.78 1536 C 1299.58 1522.2 1306.66 1504.97 1313.05 1490.72 C 1322.92 1468.94 1332.93 1447.23 1343.06 1425.57 C 1355.79 1398.15 1368.23 1370.6 1380.37 1342.92 C 1382.69 1337.62 1384.98 1332.31 1387.28 1326.99 C 1415.78 1261.06 1424.3 1185.9 1434.82 1115.37 C 1436.46 1104.37 1436.06 1092.87 1436.13 1081.73 z"/>
<path transform="translate(0,0)" fill="rgb(255,255,254)" d="M 1402.62 1536 C 1404.89 1522.43 1412.41 1474.7 1416.25 1463.92 L 1417.53 1470.01 C 1420.47 1491.02 1424.37 1515.15 1426.4 1536 L 1402.62 1536 z"/>
<path transform="translate(0,0)" fill="rgb(4,4,4)" d="M 1242.06 940.393 L 1244 938.437 L 1252.13 943.379 C 1265.2 951.457 1298.24 969.769 1307.06 979.631 C 1306.59 981.503 1304.73 989.433 1304.2 990.848 C 1304.52 1016.43 1260.81 1101.43 1246.3 1128.31 C 1245.32 1130.13 1245.37 1129.52 1246.13 1131.29 C 1297.2 1128.48 1348.5 1121.76 1399.56 1118.41 C 1402.73 1118.21 1407.57 1118.19 1409.92 1120.29 C 1411.91 1128.77 1407.39 1160.69 1405.55 1170.2 C 1379.34 1176.64 1332.52 1180.78 1304.94 1183.37 C 1275.21 1186.16 1240.23 1189.8 1210.66 1191.23 C 1161.99 1271.41 1110.31 1349.72 1055.72 1425.99 C 1044.18 1441.9 1031.86 1456.37 1019.33 1471.26 C 1014.48 1477.02 994.17 1498.06 992.085 1502.29 C 981.181 1512.64 973.249 1519.24 978.177 1536 L 965.455 1536 L 962.634 1536 C 963.668 1527.6 965.863 1517.39 971.036 1510.54 C 995.894 1477.58 1022.48 1445.76 1047.22 1412.71 C 1131.65 1299.9 1209.99 1181.09 1271.37 1054.06 C 1281.08 1033.96 1298.08 1001.16 1303.04 980.369 C 1295.74 973.208 1255.01 949.686 1242.06 940.393 z"/>
<path transform="translate(0,0)" fill="rgb(31,30,30)" d="M 1201.02 1191.96 L 1210.66 1191.23 C 1161.99 1271.41 1110.31 1349.72 1055.72 1425.99 C 1044.18 1441.9 1031.86 1456.37 1019.33 1471.26 C 1014.48 1477.02 994.17 1498.06 992.085 1502.29 C 981.181 1512.64 973.249 1519.24 978.177 1536 L 965.455 1536 C 970.167 1510.93 982.574 1501.67 997.597 1482.15 C 1013.86 1461.02 1031.03 1440.41 1047.01 1419.09 C 1102.25 1346.1 1153.65 1270.29 1201.02 1191.96 z"/>
<path transform="translate(0,0)" fill="rgb(31,30,30)" d="M 1304.2 990.848 C 1304.52 1016.43 1260.81 1101.43 1246.3 1128.31 C 1245.32 1130.13 1245.37 1129.52 1246.13 1131.29 C 1243.87 1132.03 1237.44 1132.03 1234.75 1132.13 C 1259.41 1091.56 1284.72 1034.31 1304.2 990.848 z"/>
<path transform="translate(0,0)" fill="rgb(53,53,52)" d="M 1241.77 1134.98 C 1278.32 1133.37 1316.23 1128.55 1352.79 1125.54 C 1369.03 1124.21 1392 1120.66 1407.5 1120.93 C 1407.43 1135.59 1405.42 1152.91 1403.22 1167.48 C 1380.71 1173.08 1333.31 1177.68 1309.22 1179.76 C 1280.2 1182.27 1243.3 1186.36 1214.64 1187.3 C 1212.75 1187.95 1205.75 1187.99 1203.32 1188.09 C 1212.74 1172.15 1222.89 1152.46 1233.18 1136.86 C 1234.47 1134.9 1239.09 1135.15 1241.77 1134.98 z"/>
<path transform="translate(0,0)" fill="rgb(31,30,30)" d="M 1203.32 1188.09 C 1212.74 1172.15 1222.89 1152.46 1233.18 1136.86 C 1234.47 1134.9 1239.09 1135.15 1241.77 1134.98 C 1238.94 1142.73 1213.26 1183.61 1214.64 1187.3 C 1212.75 1187.95 1205.75 1187.99 1203.32 1188.09 z"/>
<path transform="translate(0,0)" fill="rgb(4,4,4)" d="M 1523.95 892.661 L 1525.26 893.465 C 1519.86 910.398 1513.54 926.876 1508.42 943.998 C 1492.05 1000.45 1477.91 1057.53 1466.06 1115.11 C 1464 1124.99 1456.36 1155.93 1456.03 1163.49 C 1449.84 1181.42 1441.97 1228.34 1442.92 1247.08 C 1444.58 1249.08 1443.57 1248.29 1446.24 1249.25 C 1445.5 1251.96 1442.11 1260.21 1442.03 1261.36 C 1441.52 1268.78 1441.12 1276.54 1440.47 1284 C 1438.95 1300.79 1437.18 1317.55 1435.19 1334.29 C 1431.07 1369.04 1425.65 1403.63 1420.38 1438.23 C 1418.92 1447.79 1420.86 1465.1 1417.53 1470.01 L 1416.25 1463.92 L 1413.69 1463.25 C 1412.46 1459.55 1428.12 1363.55 1429.87 1350.28 C 1439.87 1276.41 1442.75 1201.76 1438.46 1127.34 C 1437.94 1116.98 1437.49 1090.45 1436.13 1081.73 C 1435.48 1060.97 1432.93 1040.19 1432.54 1019.68 L 1433.17 1020.04 C 1436.44 1032.95 1438 1061.25 1440.07 1076.67 C 1444.99 1090.27 1452.52 1137.89 1456.68 1143.61 C 1468.72 1088.05 1480.13 1033.08 1495.88 978.373 C 1503.4 952.277 1512.68 917.146 1523.95 892.661 z"/>
<path transform="translate(0,0)" fill="rgb(31,30,30)" d="M 1440.07 1076.67 C 1444.99 1090.27 1452.52 1137.89 1456.68 1143.61 C 1452.3 1160.92 1449.35 1178.82 1444.75 1196.14 C 1443.38 1183.93 1443.87 1163.02 1443.25 1149.79 C 1442.15 1126.07 1439.86 1100.2 1440.07 1076.67 z"/>
<path transform="translate(0,0)" fill="rgb(53,53,52)" d="M 982.564 1536 C 980.404 1528.89 979.479 1523.72 983.102 1516.54 C 985.974 1510.97 990.926 1506.76 996.883 1504.82 C 1008.01 1501.22 1018.99 1506.72 1022.04 1517.98 C 1023.72 1524.13 1022.64 1529.92 1021.52 1536 L 982.564 1536 z"/>
<path transform="translate(0,0)" fill="rgb(4,4,4)" d="M 1280.19 1536 C 1287.92 1489.2 1294.86 1442.27 1301 1395.23 C 1304.28 1370.26 1306.67 1340.93 1311.02 1316.73 C 1315.48 1324.87 1286.48 1516.25 1282.89 1536 L 1280.19 1536 z"/>
<path transform="translate(0,0)" fill="rgb(4,4,4)" d="M 992.085 1502.29 C 1010.4 1497.16 1021.08 1502.34 1026.8 1521.28 C 1031.21 1521.27 1046.74 1520.76 1049.81 1522.17 C 1050.69 1525.1 1050.66 1524.93 1049.92 1527.93 C 1043.08 1532.78 1032.3 1525.9 1025.42 1531.55 C 1024.9 1533.31 1024.45 1534.79 1024.09 1536 L 1021.52 1536 C 1022.64 1529.92 1023.72 1524.13 1022.04 1517.98 C 1018.99 1506.72 1008.01 1501.22 996.883 1504.82 C 990.926 1506.76 985.974 1510.97 983.102 1516.54 C 979.479 1523.72 980.404 1528.89 982.564 1536 L 978.177 1536 C 973.249 1519.24 981.181 1512.64 992.085 1502.29 z"/>
<path transform="translate(0,0)" fill="rgb(53,53,52)" d="M 1026.22 1524.41 C 1033.23 1524.26 1040.77 1523.92 1047.71 1524.43 C 1047.22 1526.14 1047.63 1525.32 1045.87 1526.6 C 1040.19 1527.07 1032.77 1527.38 1027.22 1526.2 L 1026.22 1524.41 z"/>
<path transform="translate(0,0)" fill="rgb(53,53,52)" d="M 1525.26 893.465 L 1527.44 892.452 C 1576.15 910.885 1569.54 1071.16 1570.33 1113.37 C 1570.68 1131.53 1585.41 1159.91 1589.07 1179.2 C 1595.37 1212.35 1595.61 1244.43 1598.47 1277.86 C 1602.48 1324.86 1607.74 1371.81 1611.13 1418.88 C 1614.46 1456.56 1615.57 1499.03 1619.65 1536 L 1508.27 1536 L 1505 1536 L 1482.55 1536 L 1473.87 1536 L 1426.4 1536 C 1424.37 1515.15 1420.47 1491.02 1417.53 1470.01 C 1420.86 1465.1 1418.92 1447.79 1420.38 1438.23 C 1425.65 1403.63 1431.07 1369.04 1435.19 1334.29 C 1437.18 1317.55 1438.95 1300.79 1440.47 1284 C 1441.12 1276.54 1441.52 1268.78 1442.03 1261.36 C 1442.11 1260.21 1445.5 1251.96 1446.24 1249.25 C 1443.57 1248.29 1444.58 1249.08 1442.92 1247.08 C 1441.97 1228.34 1449.84 1181.42 1456.03 1163.49 C 1456.36 1155.93 1464 1124.99 1466.06 1115.11 C 1477.91 1057.53 1492.05 1000.45 1508.42 943.998 C 1513.54 926.876 1519.86 910.398 1525.26 893.465 z"/>
<path transform="translate(0,0)" fill="rgb(31,30,30)" d="M 1503.38 1105.32 C 1497.34 1131.74 1481 1166.65 1470.96 1192.16 C 1468.37 1198.73 1462 1209.62 1459.75 1216.87 C 1460.4 1218.19 1460.96 1219.32 1461.43 1220.25 C 1459.9 1224.32 1459.3 1225.4 1456.99 1229.1 C 1458.13 1236.34 1457.13 1253.68 1456.89 1261.87 C 1456.17 1280.55 1455.82 1299.23 1455.84 1317.91 C 1456.12 1391.91 1459.65 1463.1 1473.87 1536 L 1426.4 1536 C 1424.37 1515.15 1420.47 1491.02 1417.53 1470.01 C 1420.86 1465.1 1418.92 1447.79 1420.38 1438.23 C 1425.65 1403.63 1431.07 1369.04 1435.19 1334.29 C 1437.18 1317.55 1438.95 1300.79 1440.47 1284 C 1441.12 1276.54 1441.52 1268.78 1442.03 1261.36 C 1442.11 1260.21 1445.5 1251.96 1446.24 1249.25 C 1443.57 1248.29 1444.58 1249.08 1442.92 1247.08 C 1441.97 1228.34 1449.84 1181.42 1456.03 1163.49 C 1457.98 1167.52 1459.12 1174.11 1460.11 1178.68 C 1468.57 1164.36 1476.84 1149.93 1484.91 1135.38 C 1490.27 1125.89 1496.65 1113.58 1503.38 1105.32 z"/>
<path transform="translate(0,0)" fill="rgb(31,30,30)" d="M 1482.55 1536 C 1494.9 1514.29 1506.2 1492 1516.42 1469.21 C 1523.17 1453.77 1528.65 1437.75 1536.12 1422.7 C 1532.78 1448.65 1513.44 1508.75 1505 1536 L 1482.55 1536 z"/>
<path transform="translate(0,0)" fill="rgb(4,4,4)" d="M 1503.38 1105.32 C 1507.06 1095.97 1510.64 1086.98 1513.73 1077.42 C 1516.19 1069.82 1518.04 1061.33 1521.16 1054.1 C 1521.09 1060.38 1516.18 1076.49 1514.28 1082.78 C 1504.08 1115.91 1492.33 1148.55 1479.09 1180.59 C 1473.46 1194.01 1467.06 1207.04 1461.43 1220.25 C 1460.96 1219.32 1460.4 1218.19 1459.75 1216.87 C 1462 1209.62 1468.37 1198.73 1470.96 1192.16 C 1481 1166.65 1497.34 1131.74 1503.38 1105.32 z"/>
<path transform="translate(0,0)" fill="rgb(4,4,4)" d="M 1536.12 1422.7 C 1538.01 1416.42 1547.23 1378.27 1548.87 1375.18 L 1549.69 1375.11 C 1549.45 1379.83 1548.38 1383.27 1547.49 1387.82 C 1537.71 1437.85 1523.64 1487.42 1508.27 1536 L 1505 1536 C 1513.44 1508.75 1532.78 1448.65 1536.12 1422.7 z"/>
<path transform="translate(0,0)" fill="rgb(31,30,30)" d="M 1177.47 684.194 C 1188.04 689.734 1194.94 702.477 1202.79 711.309 C 1212.7 722.469 1237.46 752.693 1249.83 759.347 C 1260.41 765.039 1282.48 774.502 1294.19 779.723 C 1337.11 798.957 1380.82 816.382 1425.2 831.954 C 1456.24 843.149 1502.87 858.922 1530.38 874.931 C 1538.67 873.414 1547.51 872.957 1554.34 878.755 C 1585.29 905.05 1599.56 984.475 1605.89 1020.82 C 1614.68 1071.22 1616.86 1121.38 1620.82 1170.95 C 1627.52 1181 1639.92 1197.84 1643.29 1209.56 C 1647.45 1224.04 1634.1 1247.67 1634.59 1262.38 C 1634.99 1274.1 1638.53 1292.68 1640.24 1303.81 C 1643.66 1326.18 1646.79 1348.59 1649.65 1371.04 C 1655.79 1420.19 1659.13 1469.67 1666.11 1518.72 C 1666.93 1524.48 1667.54 1530.3 1668.66 1536 L 1619.65 1536 C 1615.57 1499.03 1614.46 1456.56 1611.13 1418.88 C 1607.74 1371.81 1602.48 1324.86 1598.47 1277.86 C 1595.61 1244.43 1595.37 1212.35 1589.07 1179.2 C 1585.41 1159.91 1570.68 1131.53 1570.33 1113.37 C 1569.54 1071.16 1576.15 910.885 1527.44 892.452 L 1525.26 893.465 L 1523.95 892.661 L 1522.66 890.957 C 1516.4 888.196 1432.48 893.417 1418.62 893.587 C 1397.12 893.696 1375.61 893.245 1354.13 892.232 C 1345.47 891.788 1302.4 887.222 1297.91 888.587 C 1294.4 884.425 1287.45 859.157 1285.21 852.385 C 1278.65 832.833 1271.53 813.478 1263.83 794.346 C 1262.42 790.816 1250.76 764.834 1250.7 764.426 L 1249.27 765.154 C 1249.38 767.37 1257.73 784.677 1259.88 789.835 C 1273.13 821.545 1285.1 854.913 1294.33 887.98 C 1294.32 888.378 1294.32 888.775 1294.31 889.173 L 1292.68 887.145 C 1289.15 885.611 1255.47 880.242 1249.77 879.615 C 1232.88 877.759 1181.84 857.877 1169.88 868.105 C 1172.68 860.2 1172.72 850.392 1174.21 841.834 C 1180.46 805.929 1184.61 768.612 1184.74 732.158 C 1184.79 717.205 1178.24 699.923 1177.45 685.058 C 1177.46 684.77 1177.46 684.482 1177.47 684.194 z"/>
</svg>